<svg id="Layer_5" data-name="Layer 5" xmlns="http://www.w3.org/2000/svg" xmlns:xlink="http://www.w3.org/1999/xlink" width="262.97" height="96" viewBox="0 0 262.97 96">
  <defs>
    <clipPath id="clip-path">
      <rect id="Rectangle_262" data-name="Rectangle 262" width="96" height="96" fill="none"/>
    </clipPath>
  </defs>
  <g id="Group_16" data-name="Group 16" clip-path="url(#clip-path)">
    <rect id="Rectangle_261" data-name="Rectangle 261" width="12" height="12" rx="1.5" transform="translate(74 74)" fill="#fff"/>
    <circle id="Ellipse_1" data-name="Ellipse 1" cx="16" cy="16" r="16" transform="translate(32 32)" fill="#fff"/>
    <path id="Path_3" data-name="Path 3" d="M62,86H48A38,38,0,1,1,86,48V62a6,6,0,0,1-12,0V48A26,26,0,1,0,48,74H62a6,6,0,0,1,0,12Z" fill="#fff"/>
  </g>
  <g id="allot" transform="translate(8.97)">
    <g id="Group_17" data-name="Group 17">
      <path id="Path_4" data-name="Path 4" d="M136.84,52.5V75.6h-8.33V71c-3.36,4-7.07,5.67-12.88,5.67-8.12,0-12.6-5.18-12.6-11.48,0-5.25,2.17-9.17,8.26-11.41,3.64-1.33,9.06-2.13,16.17-3.18-.39-3.54-2.45-5.15-6.93-5.15-2.8,0-6.37,1.19-7.56,4.62l-8.61-2.73c1.89-6.23,7.07-10.57,16.17-10.57,6.65,0,12.11,1.82,14.77,6.86C136.77,46.41,136.84,49.07,136.84,52.5Zm-9.45,5.78c-6.37,1.08-9,1.61-11.13,2.41-2.8,1.12-3.92,2.45-3.92,4.34,0,2.59,2,4.13,5.32,4.13a9.62,9.62,0,0,0,8.75-5,15.14,15.14,0,0,0,.98-5.88Z" fill="#fff"/>
      <path id="Path_5" data-name="Path 5" d="M146.64,24.15h9.52V75.6h-9.52Z" fill="#fff"/>
      <path id="Path_6" data-name="Path 6" d="M167.36,24.15h9.52V75.6h-9.52Z" fill="#fff"/>
      <path id="Path_7" data-name="Path 7" d="M185.28,56.7c0-11.83,7.91-20,19.11-20,11.41,0,19.18,8.26,19.18,20s-7.84,20-19.18,20S185.28,68.39,185.28,56.7Zm28.21,0c0-6.72-3.08-11.06-9.1-11.06-6.23,0-9,4.48-9,11.06,0,6.79,3.08,11.06,9,11.06s9.1-4.55,9.1-11.06Z" fill="#fff"/>
      <path id="Path_8" data-name="Path 8" d="M243,59c0,2.94-.14,5.39.77,6.79,1.68,2.66,5.67,2.52,10.15,1.89V75.6c-7.84,1.47-15.82.84-18.9-4.69-1.89-3.43-1.54-6.79-1.54-11.34V45.15h-6.44V37.8h6.44V27.3H243V37.8h11v7.35H243Z" fill="#fff"/>
    </g>
  </g>
</svg>
