<svg xmlns="http://www.w3.org/2000/svg" width="519.336" height="640" viewBox="0 0 519.336 640">
  <g id="map" transform="translate(-1602.882 -0.019)" opacity="0.5">
    <g id="Group_266" data-name="Group 266" transform="translate(1851.384 246.499)">
      <path id="Path_800" data-name="Path 800" d="M2432.636,835.6l-62.781,88.223,1.672,1.271,63.01-88.535a1.08,1.08,0,0,0,.207-.636c0-.021,0-.043,0-.065l-3.715-62.644-2.082.129Z" transform="translate(-2369.855 -773.22)" fill="#fff"/>
    </g>
    <g id="Group_267" data-name="Group 267" transform="translate(1857.68 273.676)">
      <path id="Path_801" data-name="Path 801" d="M2389.551,866.328l55.34-8.844-.262-2.111-55.34,8.844Z" transform="translate(-2389.289 -855.373)" fill="#fff"/>
    </g>
    <g id="Group_268" data-name="Group 268" transform="translate(1912.108 247.251)">
      <path id="Path_802" data-name="Path 802" d="M2639.755,775.205c5.453,6.517-3.112,32.767-5.927,41.392-.55,1.684-.946,2.9-1.139,3.6-.951,3.467-1.8,3.232-5.854,2.1-.323-.09-.66-.184-1.011-.28-4.608-1.253-66.473-28.163-67.1-28.435a1.036,1.036,0,0,0-1.369.561,1.072,1.072,0,0,0,.55,1.4c2.555,1.112,62.628,27.242,67.379,28.533q.521.142,1,.276c4.007,1.117,6.9,1.925,8.412-3.579.179-.654.59-1.912,1.11-3.505,3.877-11.88,7.8-25.43,7.8-34.661,0-3.8-.665-6.865-2.271-8.785a1.029,1.029,0,0,0-1.47-.119A1.078,1.078,0,0,0,2639.755,775.205Z" transform="translate(-2557.274 -773.451)" fill="#fff"/>
    </g>
    <g id="Group_269" data-name="Group 269" transform="translate(1963.253 239.07)">
      <path id="Path_803" data-name="Path 803" d="M2733.846,748.892l-18.671,61.563a1.069,1.069,0,0,0,.678,1.327l12.673,4.187a1.04,1.04,0,0,0,1.312-.688,1.069,1.069,0,0,0-.675-1.338l-11.691-3.866,18.366-60.557a1.08,1.08,0,0,0,.047-.315,1.063,1.063,0,0,0-.735-1.016A1.039,1.039,0,0,0,2733.846,748.892Z" transform="translate(-2715.128 -748.142)" fill="#fff"/>
    </g>
    <g id="Group_270" data-name="Group 270" transform="translate(1920.109 295.481)">
      <path id="Path_804" data-name="Path 804" d="M2582.235,1022.76a1.079,1.079,0,0,0,.077,1.5,1.028,1.028,0,0,0,1.473-.079l61.816-96.992a1.078,1.078,0,0,0-.077-1.5,1.028,1.028,0,0,0-1.473.079Z" transform="translate(-2581.967 -925.417)" fill="#fff"/>
    </g>
    <g id="Group_271" data-name="Group 271" transform="translate(1911.979 288.206)">
      <path id="Path_805" data-name="Path 805" d="M2606.864,901.972c-.563,1.186-13.8,29.091-16.005,35.186-.816,2.259-1.782,3.724-2.968,3.867-2.955.356-27.3-12.975-29.295-14.719a1.029,1.029,0,0,0-1.471.117,1.077,1.077,0,0,0,.115,1.5c2.584,2.254,27.128,16.051,31.177,15.161,1.9-.417,3.318-2.2,4.4-5.19,2.166-6,15.788-34.7,15.925-34.993a1.079,1.079,0,0,0,.1-.464,1.066,1.066,0,0,0-.589-.958A1.034,1.034,0,0,0,2606.864,901.972Z" transform="translate(-2556.875 -901.372)" fill="#fff"/>
    </g>
    <g id="Group_272" data-name="Group 272" transform="translate(1929.49 226.748)">
      <path id="Path_806" data-name="Path 806" d="M2647.906,710.362c-.181.492-18.085,49.284-19.243,52.286a21.575,21.575,0,0,1-7.512,9.325c-.831.588-1.7,1.16-2.549,1.712-3.5,2.288-6.8,4.448-7.65,7.923a1.067,1.067,0,0,0,.759,1.29,1.042,1.042,0,0,0,1.265-.774c.651-2.656,3.615-4.595,6.752-6.648.86-.563,1.75-1.145,2.612-1.755a23.783,23.783,0,0,0,8.265-10.294c1.164-3.018,18.517-50.307,19.255-52.319a1.072,1.072,0,0,0-.611-1.369A1.037,1.037,0,0,0,2647.906,710.362Z" transform="translate(-2610.921 -709.671)" fill="#fff"/>
    </g>
    <g id="Group_273" data-name="Group 273" transform="translate(1923.494 178.666)">
      <path id="Path_807" data-name="Path 807" d="M2592.893,569.483a1.077,1.077,0,0,0-.317,1.459c5.86,9.521,21.289,34.96,22.291,38.282,1.465,4.859,9.743,11.349,16.712,13.1a1.042,1.042,0,0,0,1.262-.778,1.087,1.087,0,0,0,.031-.256,1.06,1.06,0,0,0-.794-1.032c-6.7-1.687-14.092-7.928-15.218-11.664-1.187-3.933-18.57-32.357-21.971-37.9l14.695-9.7a1.076,1.076,0,0,0,.309-1.471,1.031,1.031,0,0,0-1.442-.315Z" transform="translate(-2592.417 -559.043)" fill="#fff"/>
    </g>
    <g id="Group_274" data-name="Group 274" transform="translate(1955.512 256.371)">
      <path id="Path_808" data-name="Path 808" d="M2691.28,802a1.069,1.069,0,0,0,.7,1.323l19.406,5.9a1.04,1.04,0,0,0,1.3-.716,1.1,1.1,0,0,0,.043-.3,1.062,1.062,0,0,0-.745-1.019l-19.406-5.9A1.04,1.04,0,0,0,2691.28,802Z" transform="translate(-2691.237 -801.237)" fill="#fff"/>
    </g>
    <g id="Group_275" data-name="Group 275" transform="translate(1977.439 246.399)">
      <path id="Path_809" data-name="Path 809" d="M2774.249,770.836l-3.273,9.2c-1.088-.249-3.015-.686-4.928-1.105-1.7-.371-3.057-.656-4.038-.847-1.944-.377-2.749-.533-3.053.469a1.068,1.068,0,0,0,.688,1.331,1.013,1.013,0,0,0,.479.034c1.057.1,7.152,1.443,11.288,2.4a1.039,1.039,0,0,0,1.211-.674l3.586-10.078a1.072,1.072,0,0,0-.625-1.363A1.037,1.037,0,0,0,2774.249,770.836Zm-13.3,8.346a1.055,1.055,0,0,1-.148.3A1.055,1.055,0,0,0,2760.949,779.181Z" transform="translate(-2758.91 -770.135)" fill="#fff"/>
    </g>
    <g id="Group_276" data-name="Group 276" transform="translate(1972.052 271.52)">
      <path id="Path_810" data-name="Path 810" d="M2742.347,849.313a1.071,1.071,0,0,0,.63,1.36l19.917,7.286a1.038,1.038,0,0,0,1.334-.642,1.083,1.083,0,0,0,.061-.359,1.063,1.063,0,0,0-.691-1l-19.916-7.286A1.038,1.038,0,0,0,2742.347,849.313Z" transform="translate(-2742.286 -848.608)" fill="#fff"/>
    </g>
    <g id="Group_277" data-name="Group 277" transform="translate(1981.924 286.308)">
      <path id="Path_811" data-name="Path 811" d="M2772.806,896.17c1.407,4.37,6.99,4.915,7.227,4.936a1.05,1.05,0,0,0,1.13-.967c0-.032,0-.063,0-.094a1.056,1.056,0,0,0-.952-1.058c-.043,0-4.45-.449-5.426-3.481a1.039,1.039,0,0,0-1.317-.679A1.068,1.068,0,0,0,2772.806,896.17Z" transform="translate(-2772.754 -894.774)" fill="#fff"/>
    </g>
    <g id="Group_278" data-name="Group 278" transform="translate(1979.662 254.731)">
      <path id="Path_812" data-name="Path 812" d="M2768.129,797.255l-2.349,19.124a1.043,1.043,0,1,0,2.069.265l2.349-19.123a1.134,1.134,0,0,0,.008-.134,1.042,1.042,0,0,0-2.077-.131Z" transform="translate(-2765.772 -796.324)" fill="#fff"/>
    </g>
    <g id="Group_279" data-name="Group 279" transform="translate(1877.542 376.965)">
      <path id="Path_813" data-name="Path 813" d="M2503.861,1196.477c-18.407-5.265-27.345.961-31.036,5.14-4.313,4.886-21.616,37.8-22.121,38.871a1.168,1.168,0,0,0,.426,1.517,1.034,1.034,0,0,0,1.391-.5c.123-.261,17.741-33.8,21.854-38.463s12.468-9.221,28.922-4.515c24.8,7.093,44.779,1.486,59.387-16.666l19.372,7.083a1.037,1.037,0,0,0,1.334-.643,1.09,1.09,0,0,0,.062-.359,1.064,1.064,0,0,0-.691-1l-20.068-7.338a1.031,1.031,0,0,0-1.166.335C2547.451,1197.83,2528.05,1203.394,2503.861,1196.477Z" transform="translate(-2450.589 -1179.54)" fill="#fff"/>
    </g>
    <g id="Group_280" data-name="Group 280" transform="translate(1955.512 301.736)">
      <path id="Path_814" data-name="Path 814" d="M2691.406,943.59a1.077,1.077,0,0,0,.3,1.473l15.381,10.336a1.031,1.031,0,0,0,1.443-.31,1.078,1.078,0,0,0-.3-1.473l-15.381-10.336A1.031,1.031,0,0,0,2691.406,943.59Z" transform="translate(-2691.237 -943.107)" fill="#fff"/>
    </g>
    <g id="Group_281" data-name="Group 281" transform="translate(1993.66 403.379)">
      <path id="Path_815" data-name="Path 815" d="M2842.7,1261.417c-.056.084-5.6,8.421-7.475,11.288-.3.458-.575.9-.836,1.327-.724,1.173-1.472,2.387-2.018,2.506a1.081,1.081,0,0,1-.748-.266,27.593,27.593,0,0,0-10.962-3.39l-10.037-7.342a1.03,1.03,0,0,0-1.455.244,1.077,1.077,0,0,0,.24,1.485l10.3,7.534a1.03,1.03,0,0,0,.607.2,25.362,25.362,0,0,1,10.151,3.039,2.977,2.977,0,0,0,2.34.576c1.407-.307,2.264-1.694,3.348-3.452.252-.408.518-.839.806-1.28,1.87-2.86,7.41-11.19,7.465-11.274a1.078,1.078,0,0,0-.277-1.478A1.031,1.031,0,0,0,2842.7,1261.417Z" transform="translate(-2808.975 -1260.95)" fill="#fff"/>
    </g>
    <g id="Group_282" data-name="Group 282" transform="translate(1998.984 399.313)">
      <path id="Path_816" data-name="Path 816" d="M2825.608,1248.672a1.078,1.078,0,0,0,.23,1.486l20.751,15.4a1.03,1.03,0,0,0,1.457-.234,1.08,1.08,0,0,0-.23-1.486l-20.751-15.4A1.03,1.03,0,0,0,2825.608,1248.672Z" transform="translate(-2825.408 -1248.234)" fill="#fff"/>
    </g>
    <g id="Group_283" data-name="Group 283" transform="translate(2004.464 390.844)">
      <path id="Path_817" data-name="Path 817" d="M2842.433,1222.348a1.073,1.073,0,0,0,.466,1.427c3.478,1.773,23.161,12.4,25.149,14.172,2.773,2.475,12.274.635,14.15.241a1.059,1.059,0,0,0,.833-1.041,1.128,1.128,0,0,0-.021-.216,1.044,1.044,0,0,0-1.231-.827c-4.246.89-10.886,1.553-12.356.241-2.6-2.316-25.069-14.209-25.589-14.474A1.033,1.033,0,0,0,2842.433,1222.348Z" transform="translate(-2842.322 -1221.76)" fill="#fff"/>
    </g>
    <g id="Group_284" data-name="Group 284" transform="translate(2014.687 400.316)">
      <path id="Path_818" data-name="Path 818" d="M2881.461,1251.7l-7.4,10.677a1.078,1.078,0,0,0,.25,1.483,1.03,1.03,0,0,0,1.453-.255l7.4-10.677a1.078,1.078,0,0,0-.25-1.483A1.03,1.03,0,0,0,2881.461,1251.7Z" transform="translate(-2873.875 -1251.252)" fill="#fff"/>
    </g>
    <g id="Group_285" data-name="Group 285" transform="translate(2009.101 374.431)">
      <path id="Path_819" data-name="Path 819" d="M2863.7,1171.216a1.035,1.035,0,0,0,.534,1.379c1.672.711,17.557,9.112,17.788,9.117.124.754-.716,3.239-1.4,5.256-.218.645-.448,1.328-.682,2.043-.5,1.518-1.308,1.856-1.875,1.979-2.909.627-17.638-8.465-19.621-10.686a1.029,1.029,0,0,0-1.473-.071,1.078,1.078,0,0,0-.069,1.5c1.774,1.988,17.272,12.267,21.594,11.335a4.59,4.59,0,0,0,3.424-3.387c.231-.708.459-1.385.675-2.025a21.991,21.991,0,0,0,1.5-5.815,2.223,2.223,0,0,0-.664-1.754c-1.114-1.017-16.447-8.627-18.346-9.435A1.074,1.074,0,0,0,2863.7,1171.216Z" transform="translate(-2856.632 -1170.573)" fill="#fff"/>
    </g>
    <g id="Group_286" data-name="Group 286" transform="translate(2034.296 381.088)">
      <path id="Path_820" data-name="Path 820" d="M2935.1,1194.157a1.068,1.068,0,0,0-.65,1.35,1.038,1.038,0,0,0,1.324.663l8.981-3.13a1.063,1.063,0,0,0,.706-1.007,1.076,1.076,0,0,0-.056-.344,1.038,1.038,0,0,0-1.324-.663Z" transform="translate(-2934.394 -1190.969)" fill="#fff"/>
    </g>
    <g id="Group_287" data-name="Group 287" transform="translate(2032.688 351.422)">
      <path id="Path_821" data-name="Path 821" d="M2929.7,1101.912c.08.091,8.068,9.236,10.372,16.649,2.316,7.451-.635,62.06-.659,62.487a1.043,1.043,0,1,0,2.083.122c.064-1.154,1.68-31.567,1.68-46.18,0-7.685-.277-14.376-1.115-17.072-2.44-7.852-10.467-17.039-10.808-17.426a1.029,1.029,0,0,0-1.473-.082A1.079,1.079,0,0,0,2929.7,1101.912Z" transform="translate(-2929.432 -1100.138)" fill="#fff"/>
    </g>
    <path id="Path_822" data-name="Path 822" d="M2981.388,1115.533c-5.253,1.261-20.946,3.386-21.1,3.407a1.06,1.06,0,0,0-.9,1.194,1.046,1.046,0,0,0,1.171.915c.649-.087,15.955-2.16,21.308-3.444,8.51-2.043,32.036-7.406,38.619-7.7,3.163-.14,10.912-.811,18.72-1.531v-2.138c-7.865.726-15.694,1.406-18.811,1.544C3012.268,1108.141,2981.7,1115.459,2981.388,1115.533Z" transform="translate(-916.988 -752.329)" fill="#fff"/>
    <path id="Path_823" data-name="Path 823" d="M1602.886,1104.253c9.011-.831,18.1-1.727,20.314-1.946l15.274,14.347a1.028,1.028,0,0,0,1.473-.062,1.077,1.077,0,0,0-.061-1.5l-15.617-14.669a1.029,1.029,0,0,0-.808-.276c-.181.018-10.408,1.033-20.576,1.971Z" transform="translate(-0.003 -748.195)" fill="#fff"/>
    <g id="Group_288" data-name="Group 288" transform="translate(2043.85 371.586)">
      <path id="Path_824" data-name="Path 824" d="M2964.045,1163.1a1.077,1.077,0,0,0,.317,1.469c3.441,2.246,7.284,7.2,7.592,12.774.312,5.636,1.2,42.712,1.214,43.049a1.043,1.043,0,1,0,2.085-.03c0-.01.047-3.615.047-3.625-.01-.338-.951-33.849-1.263-39.514-.351-6.354-4.548-11.835-8.551-14.447A1.031,1.031,0,0,0,2964.045,1163.1Z" transform="translate(-2963.881 -1162.607)" fill="#fff"/>
    </g>
    <g id="Group_289" data-name="Group 289" transform="translate(2028.887 394.786)">
      <path id="Path_825" data-name="Path 825" d="M2917.76,1235.208c1.127,3.273,8.458,4.554,24.511,4.282a1.054,1.054,0,0,0,1.026-1.063c0-.006,0-.012,0-.018a1.052,1.052,0,0,0-1.06-1.046c-18.62.316-22.094-1.656-22.509-2.859a1.038,1.038,0,0,0-1.33-.651A1.07,1.07,0,0,0,2917.76,1235.208Z" transform="translate(-2917.701 -1233.792)" fill="#fff"/>
    </g>
    <g id="Group_290" data-name="Group 290" transform="translate(2050.006 370.692)">
      <path id="Path_826" data-name="Path 826" d="M2983.609,1166.9a1.067,1.067,0,0,0-.678,1.337,1.04,1.04,0,0,0,1.31.692l25.448-8.255a1.062,1.062,0,0,0,.728-1.013,1.078,1.078,0,0,0-.049-.323,1.039,1.039,0,0,0-1.31-.691Z" transform="translate(-2982.882 -1158.598)" fill="#fff"/>
    </g>
    <g id="Group_291" data-name="Group 291" transform="translate(2056.7 376.071)">
      <path id="Path_827" data-name="Path 827" d="M3003.583,1178.354l19.116,69.522a1.04,1.04,0,0,0,1.289.731,1.061,1.061,0,0,0,.757-1.022,1.083,1.083,0,0,0-.04-.292l-19.116-69.522a1.04,1.04,0,0,0-1.289-.73A1.065,1.065,0,0,0,3003.583,1178.354Z" transform="translate(-3003.542 -1176.999)" fill="#fff"/>
    </g>
    <g id="Group_292" data-name="Group 292" transform="translate(2070.353 333.538)">
      <path id="Path_828" data-name="Path 828" d="M3045.689,1046.205l17.162,110.106a1.047,1.047,0,0,0,1.178.9c.521-.075.894-1.152.887-1.2l-17.162-110.106a1.047,1.047,0,0,0-1.179-.9A1.064,1.064,0,0,0,3045.689,1046.205Z" transform="translate(-3045.68 -1044.992)" fill="#fff"/>
    </g>
    <path id="Path_829" data-name="Path 829" d="M3034.621,1211.63l-17.1,2.5a1.063,1.063,0,0,0-.885,1.2,1.046,1.046,0,0,0,1.18.9l17.049-2.489,43.038-2.138v-2.13l-43.188,2.145C3034.686,1211.622,3034.653,1211.625,3034.621,1211.63Z" transform="translate(-955.688 -822.478)" fill="#fff"/>
    <path id="Path_830" data-name="Path 830" d="M1648.379,1073.432c-.383.874-9.39,21.462-11.269,26.254-1.635,4.168-3,13.034-3.412,15.868l-30.812,1.53v2.13l31.773-1.578a1.051,1.051,0,0,0,.982-.917c.015-.115,1.581-11.591,3.405-16.243,1.864-4.753,11.144-25.963,11.237-26.177a1.091,1.091,0,0,0,.091-.433,1.065,1.065,0,0,0-.618-.972A1.035,1.035,0,0,0,1648.379,1073.432Z" transform="translate(-0.003 -729.82)" fill="#fff"/>
    <path id="Path_831" data-name="Path 831" d="M3041.387,1296.647a1.049,1.049,0,0,0,1.117.982l52.137-3.926v-2.133l-52.29,3.938A1.056,1.056,0,0,0,3041.387,1296.647Z" transform="translate(-972.423 -878.3)" fill="#fff"/>
    <path id="Path_832" data-name="Path 832" d="M3141.7,786.13,3156.234,903.1a1.043,1.043,0,1,0,2.078-.19L3143.79,786.087l18.66-100.578V674.066l-20.737,111.771A1.051,1.051,0,0,0,3141.7,786.13Z" transform="translate(-1040.233 -459.834)" fill="#fff"/>
    <path id="Path_833" data-name="Path 833" d="M1604.423,646.686l-1.537,8.286v11.444l3.587-19.334a1.11,1.11,0,0,0,.018-.2,1.059,1.059,0,0,0-.849-1.044A1.045,1.045,0,0,0,1604.423,646.686Z" transform="translate(-0.003 -439.228)" fill="#fff"/>
    <path id="Path_834" data-name="Path 834" d="M3199.014,937.989a19.574,19.574,0,0,0,1.8,14.207v-6.108a18.278,18.278,0,0,1,0-6.39V937.52a1.032,1.032,0,0,0-.55-.335A1.043,1.043,0,0,0,3199.014,937.989Z" transform="translate(-1078.593 -637.341)" fill="#fff"/>
    <path id="Path_835" data-name="Path 835" d="M1603.123,939.21a1.075,1.075,0,0,0-.238-.937v2.177C1602.952,940.046,1603.029,939.634,1603.123,939.21Z" transform="translate(-0.002 -638.023)" fill="#fff"/>
    <path id="Path_836" data-name="Path 836" d="M1605.236,974.539c.323.467.631.911.9,1.324l11.117,102.96a1.042,1.042,0,0,0,2.083-.069c0-.023,0-.047,0-.071L1608.2,975.448a1.078,1.078,0,0,0-.16-.5c-.323-.518-.7-1.06-1.1-1.634a21.625,21.625,0,0,1-4.053-8.6v6.108A38.246,38.246,0,0,0,1605.236,974.539Z" transform="translate(-0.003 -656.823)" fill="#fff"/>
    <g id="Group_293" data-name="Group 293" transform="translate(2092.9 356.641)">
      <path id="Path_837" data-name="Path 837" d="M3115.271,1116.335l1.339,31.876a1.043,1.043,0,0,0,2.085-.045c0-.016,0-.031,0-.047l-1.34-31.876a1.043,1.043,0,1,0-2.084.091Z" transform="translate(-3115.27 -1115.226)" fill="#fff"/>
    </g>
    <path id="Path_838" data-name="Path 838" d="M3029.7,916.408a1.053,1.053,0,0,0,1.042,1.064h42.143l13.857,6.161v-2.321l-13.223-5.879a1.024,1.024,0,0,0-.417-.089h-42.36A1.053,1.053,0,0,0,3029.7,916.408Z" transform="translate(-964.523 -622.466)" fill="#fff"/>
    <path id="Path_839" data-name="Path 839" d="M1723.491,989.709a1.036,1.036,0,0,0,1.373-.55,1.073,1.073,0,0,0-.54-1.4l-121.438-53.995v2.321Z" transform="translate(-0.003 -635.297)" fill="#fff"/>
    <path id="Path_840" data-name="Path 840" d="M2810.44,676.55a1.078,1.078,0,0,0,.257,1.482l85.383,56.748a1.028,1.028,0,0,0,.656.191c.3-.017,29.765-1.636,37.36,1.264.647.247,2.131.871,4.3,1.805v-2.308c-1.764-.756-2.989-1.268-3.57-1.489-7.62-2.91-34.259-1.606-37.846-1.416l-85.088-56.538A1.03,1.03,0,0,0,2810.44,676.55Z" transform="translate(-816.179 -460.016)" fill="#fff"/>
    <path id="Path_841" data-name="Path 841" d="M1735.586,921.344a1.035,1.035,0,0,0,1.374-.547,1.083,1.083,0,0,0,.088-.427,1.066,1.066,0,0,0-.625-.975c-4.884-2.181-111.527-49.815-133.537-59.242v2.308C1626.784,872.747,1734.4,920.815,1735.586,921.344Z" transform="translate(-0.003 -585.248)" fill="#fff"/>
    <path id="Path_842" data-name="Path 842" d="M3064.113,573.136a1.075,1.075,0,0,0,.4,1.447l45.4,25.744v-2.434l-44.385-25.17A1.032,1.032,0,0,0,3064.113,573.136Z" transform="translate(-987.699 -389.448)" fill="#fff"/>
    <path id="Path_843" data-name="Path 843" d="M1732.052,726.368,1698.015,809.5a1.071,1.071,0,0,0,.561,1.392,1.036,1.036,0,0,0,1.364-.572l34.4-84.009a1.081,1.081,0,0,0,.08-.409,1.067,1.067,0,0,0-.536-.93l-130.994-74.284v2.434Z" transform="translate(-0.003 -443.308)" fill="#fff"/>
    <path id="Path_844" data-name="Path 844" d="M2948.339,567.322a1.075,1.075,0,0,0,.4,1.318l62.619,40.787a1.028,1.028,0,0,0,.249.119l15.228,4.875,4.853,2.057v-2.3l-4.1-1.736c-.029-.012-.058-.023-.088-.033l-15.141-4.847-61.693-40.184c1.146-2.028,4.968-7.892,14.973-16.855,13.963-12.509,39.333-7.457,42.179-6.839,2.391.518,12,5.66,23.865,12.29v-2.426c-11.7-6.524-20.884-11.393-23.431-11.945-2.952-.64-29.262-5.873-43.989,7.321C2951.3,560.531,2948.455,567.05,2948.339,567.322Z" transform="translate(-909.467 -367.502)" fill="#fff"/>
    <path id="Path_845" data-name="Path 845" d="M1627.924,598.327c17.377,9.906,33.791,19.262,38.481,21.18,10.166,4.155,39.813,36.284,41.768,39.7a1.033,1.033,0,0,0,1.427.382,1.077,1.077,0,0,0,.375-1.455c-2.019-3.527-31.965-36.178-42.793-40.6-4.566-1.867-20.924-11.191-38.24-21.062-8.991-5.125-18.1-10.321-26.055-14.753v2.426C1610.724,588.522,1619.546,593.551,1627.924,598.327Z" transform="translate(-0.003 -395.871)" fill="#fff"/>
    <path id="Path_846" data-name="Path 846" d="M1754.352,835.339a1.036,1.036,0,0,0,1.364-.574,1.079,1.079,0,0,0,.08-.408,1.065,1.065,0,0,0-.643-.983l-152.267-64.532v2.3Z" transform="translate(-0.003 -523.15)" fill="#fff"/>
    <path id="Path_847" data-name="Path 847" d="M3193.774,861.22l-4.7,21.784a1.064,1.064,0,0,0,.794,1.268,1.042,1.042,0,0,0,1.242-.81l3.349-15.533V860.17l-.483.611A1.077,1.077,0,0,0,3193.774,861.22Z" transform="translate(-1072.247 -585.033)" fill="#fff"/>
    <path id="Path_848" data-name="Path 848" d="M1641.117,651.366l-21.246,45.743-16.985,21.5v7.758l1.3-6.007,17.392-22.014a1.052,1.052,0,0,0,.13-.212l21.3-45.857a1.08,1.08,0,0,0,.1-.455,1.066,1.066,0,0,0-.6-.962A1.035,1.035,0,0,0,1641.117,651.366Z" transform="translate(-0.003 -442.844)" fill="#fff"/>
    <path id="Path_849" data-name="Path 849" d="M1718.71,689.057l-33.748,91.884a1.071,1.071,0,0,0,.611,1.369,1.037,1.037,0,0,0,1.343-.623l33.748-91.884a1.072,1.072,0,0,0-.611-1.369A1.037,1.037,0,0,0,1718.71,689.057Z" transform="translate(-55.441 -468.541)" fill="#fff"/>
    <path id="Path_850" data-name="Path 850" d="M1796.271,746.43l-31.959,84.723a1.071,1.071,0,0,0,.6,1.374,1.036,1.036,0,0,0,1.347-.611l31.959-84.723a1.081,1.081,0,0,0,.07-.382,1.064,1.064,0,0,0-.669-.992A1.036,1.036,0,0,0,1796.271,746.43Z" transform="translate(-109.079 -507.555)" fill="#fff"/>
    <g id="Group_294" data-name="Group 294" transform="translate(2034.488 176.81)">
      <path id="Path_851" data-name="Path 851" d="M3005.182,554.841,2935.153,665.03a1.078,1.078,0,0,0,.24,1.422L2955.34,691.8a1.029,1.029,0,0,0,1.463-.194,1.078,1.078,0,0,0-.191-1.492l-19.185-24.75L3006.932,556a1.078,1.078,0,0,0-.308-1.472A1.031,1.031,0,0,0,3005.182,554.841Z" transform="translate(-2934.985 -554.356)" fill="#fff"/>
    </g>
    <g id="Group_295" data-name="Group 295" transform="translate(2049.147 187.977)">
      <path id="Path_852" data-name="Path 852" d="M2980.358,588.187a1.074,1.074,0,0,0,.422,1.441l34.959,18.854a1.033,1.033,0,0,0,1.413-.431,1.076,1.076,0,0,0-.422-1.442l-34.959-18.854A1.033,1.033,0,0,0,2980.358,588.187Z" transform="translate(-2980.232 -587.629)" fill="#fff"/>
    </g>
    <g id="Group_296" data-name="Group 296" transform="translate(1993.031 182.466)">
      <path id="Path_853" data-name="Path 853" d="M2807.2,571.336a1.076,1.076,0,0,0,.32,1.468l73.431,54.536a1.031,1.031,0,0,0,1.44-.327,1.077,1.077,0,0,0-.32-1.468l-73.431-54.536A1.031,1.031,0,0,0,2807.2,571.336Z" transform="translate(-2807.034 -570.843)" fill="#fff"/>
    </g>
    <g id="Group_297" data-name="Group 297" transform="translate(2058.232 272.023)">
      <path id="Path_854" data-name="Path 854" d="M3031.324,852.115l-4.95,27.647-17.952,30.41a1.077,1.077,0,0,0,.286,1.413l8.229,6.016a1.031,1.031,0,0,0,1.456-.245,1.079,1.079,0,0,0-.24-1.485l-7.447-5.444,17.553-29.735a1.074,1.074,0,0,0,.133-.357l4.984-27.837a1.044,1.044,0,1,0-2.052-.382Z" transform="translate(-3008.272 -851.242)" fill="#fff"/>
    </g>
    <path id="Path_855" data-name="Path 855" d="M2086.856,503.016c-1.43,1.841-131.468,169.234-138.336,178.47-6.206,8.345-10.844,16.91-13.411,24.767-2.184,6.685-12.505,73.9-12.673,74.427-.177.56.089.728.637.909a1.039,1.039,0,0,0,1.314-.683c.168-.527,10.519-67.3,12.7-73.979,2.5-7.64,7.024-15.993,13.094-24.155,6.856-9.219,136.88-176.593,138.309-178.435a1.077,1.077,0,0,0-.169-1.494A1.029,1.029,0,0,0,2086.856,503.016Z" transform="translate(-215.981 -343.283)" fill="#fff"/>
    <path id="Path_856" data-name="Path 856" d="M2008.606,988.029l-.082.146a17.7,17.7,0,0,1-2.313,3.143c-1.007,1.135-2.271,2.4-3.82,3.939-3.14,3.114-9.914,11.795-11.581,15.536-1.572,3.526-13.964,35.8-14.49,37.172a1.071,1.071,0,0,0,.57,1.37l119.434,58.763a1.035,1.035,0,0,0,1.364-.573c.055-.134-.161-1.221-.561-1.391l-118.492-58.362c2.128-5.537,12.676-32.96,14.075-36.1,1.453-3.261,7.88-11.66,11.138-14.892,1.575-1.565,2.863-2.854,3.911-4.035a19.77,19.77,0,0,0,2.578-3.517l.082-.147c1.167-2.088,1.754-3.136,5.513-1.347,3.257,1.551,11.193,5.536,14.524,9.026,3.193,3.344,13.126,10.2,13.548,10.492a1.029,1.029,0,0,0,1.448-.286,1.077,1.077,0,0,0-.281-1.477c-.1-.07-10.176-7.025-13.221-10.214-3.443-3.607-10.961-7.481-15.136-9.469C2011.717,983.382,2010.14,985.287,2008.606,988.029Z" transform="translate(-252.394 -670.504)" fill="#fff"/>
    <path id="Path_857" data-name="Path 857" d="M2074.546,1055.883c-.478,1.4-.891,2.6-1.217,3.335a38.893,38.893,0,0,1-3.414,5.4c-2.4,3.435-5.384,7.71-7.106,12.363-2.712,7.327-18.683,52.877-18.844,53.337a1.068,1.068,0,0,0,.63,1.36,1.037,1.037,0,0,0,1.333-.643c.161-.459,16.127-45.992,18.833-53.3,1.626-4.394,4.525-8.544,6.854-11.879a39.843,39.843,0,0,0,3.615-5.76c.364-.822.791-2.068,1.285-3.511,1.4-4.1,3.755-10.964,6.467-12.228a1.724,1.724,0,0,1,1.461-.041c5.349,2.162,86.849,26.313,90.417,27.365a.84.84,0,0,0,1.1-.692c.028-.1.23-.232.23-.33a1.062,1.062,0,0,0-.754-1.021c-.873-.257-84.971-25.175-90.229-27.3a3.746,3.746,0,0,0-3.1.083C2078.594,1044.063,2076.254,1050.895,2074.546,1055.883Z" transform="translate(-298.129 -709.243)" fill="#fff"/>
    <path id="Path_858" data-name="Path 858" d="M2067.975,1004.719a1.071,1.071,0,0,0,.57,1.387l29.993,12.527a1.036,1.036,0,0,0,1.361-.581,1.084,1.084,0,0,0,.078-.4,1.064,1.064,0,0,0-.648-.985l-29.993-12.527A1.035,1.035,0,0,0,2067.975,1004.719Z" transform="translate(-314.349 -682.837)" fill="#fff"/>
    <path id="Path_859" data-name="Path 859" d="M2056.1,1016.906a1.075,1.075,0,0,0,.4,1.448l28.26,16.224a1.032,1.032,0,0,0,1.42-.407,1.076,1.076,0,0,0-.4-1.448l-28.26-16.224A1.032,1.032,0,0,0,2056.1,1016.906Z" transform="translate(-306.283 -691.229)" fill="#fff"/>
    <path id="Path_860" data-name="Path 860" d="M2028.137,1051.907a1.073,1.073,0,0,0,.547,1.4c11.385,4.985,30.1,13.941,31.862,16.75a1.031,1.031,0,0,0,1.44.324,1.069,1.069,0,0,0,.481-.9,1.081,1.081,0,0,0-.164-.572c-2.685-4.284-29.723-16.213-32.8-17.559A1.036,1.036,0,0,0,2028.137,1051.907Z" transform="translate(-287.413 -714.972)" fill="#fff"/>
    <path id="Path_861" data-name="Path 861" d="M1999.3,1110.56a1.079,1.079,0,0,0,.232,1.486l4.134,3.059-6.1,20.657a1.069,1.069,0,0,0,.7,1.326,1.04,1.04,0,0,0,1.3-.712L2005.88,1115a1.078,1.078,0,0,0-.386-1.168l-4.733-3.5A1.031,1.031,0,0,0,1999.3,1110.56Z" transform="translate(-266.777 -755.059)" fill="#fff"/>
    <path id="Path_862" data-name="Path 862" d="M2015.541,1121.7a1.073,1.073,0,0,0,.527,1.405l27.453,10.3a1.035,1.035,0,0,0,1.378-.538,1.078,1.078,0,0,0,.091-.433,1.065,1.065,0,0,0-.618-.972l-27.453-10.3A1.035,1.035,0,0,0,2015.541,1121.7Z" transform="translate(-278.895 -762.4)" fill="#fff"/>
    <path id="Path_863" data-name="Path 863" d="M2114.265,1124.911a1.07,1.07,0,0,0,.546,1.4l122.26,53.8a1.035,1.035,0,0,0,1.37-.557c.058-.137-.037-.218-.037-.359a1.054,1.054,0,0,0-.509-1.038l-122.26-53.805A1.035,1.035,0,0,0,2114.265,1124.911Z" transform="translate(-345.635 -764.91)" fill="#fff"/>
    <path id="Path_864" data-name="Path 864" d="M2103.478,1145.032a1.07,1.07,0,0,0,.595,1.377l12.3,4.874-6.2,13.452a1.086,1.086,0,0,0-.012.876,1.05,1.05,0,0,0,.636.589l23.08,7.613a1.039,1.039,0,0,0,1.313-.685,1.1,1.1,0,0,0,.051-.327,1.063,1.063,0,0,0-.723-1.012l-21.953-7.241,6.168-13.391a1.082,1.082,0,0,0,.024-.848,1.049,1.049,0,0,0-.591-.6l-13.343-5.286A1.036,1.036,0,0,0,2103.478,1145.032Z" transform="translate(-338.353 -778.362)" fill="#fff"/>
    <path id="Path_865" data-name="Path 865" d="M2178.44,1068.755l-33.61,101.607a1.067,1.067,0,0,0,.661,1.345,1.038,1.038,0,0,0,1.318-.674l33.61-101.607a1.07,1.07,0,0,0-.66-1.345A1.038,1.038,0,0,0,2178.44,1068.755Z" transform="translate(-366.318 -727.056)" fill="#fff"/>
    <path id="Path_866" data-name="Path 866" d="M2094.052,1175.854a1.069,1.069,0,0,0,.621,1.365c.541.2,63.477,23.573,69.375,26.724.743.4,1.651.862,2.68,1.388,7.142,3.651,41.738,33.189,42.2,33.654.558.556,1.66-1.282,1.57-1.374-7.552-7.751-35.446-30.4-42.84-34.182-1.017-.52-1.914-.979-2.648-1.37-6.018-3.215-67.409-26.01-69.625-26.837A1.037,1.037,0,0,0,2094.052,1175.854Z" transform="translate(-331.986 -799.604)" fill="#fff"/>
    <path id="Path_867" data-name="Path 867" d="M2141.731,1167.7a1.085,1.085,0,0,0,0,.9c.258.57.258.57,11.736,3.866,5.509,1.582,11.007,3.14,11.007,3.14a1.04,1.04,0,0,0,1.284-.74,1.085,1.085,0,0,0,.038-.285,1.06,1.06,0,0,0-.764-1.024c-8.2-2.324-20.645-5.887-21.856-6.338-.019-.011-.04-.021-.06-.031A1.034,1.034,0,0,0,2141.731,1167.7Z" transform="translate(-364.195 -793.662)" fill="#fff"/>
    <path id="Path_868" data-name="Path 868" d="M2088.869,942.018a1.074,1.074,0,0,0,.435,1.437l37.657,20.285a.9.9,0,0,0,.114.052c.379.149,9.391,3.645,17.042,4.056,7.5.4,78.758,10.5,79.319,10.521a1.052,1.052,0,0,0,1.077-1.029c0-.012,0-.024,0-.035a1.055,1.055,0,0,0-1.009-1.063c-.561-.018-71.8-10.116-79.277-10.518-7.022-.378-15.574-3.6-16.349-3.9l-37.6-20.254A1.033,1.033,0,0,0,2088.869,942.018Z" transform="translate(-328.444 -640.398)" fill="#fff"/>
    <path id="Path_869" data-name="Path 869" d="M2374.082,695.943c-.13,1.589-2.825,35.976-1.878,45.932.917,9.68-8.48,62.423-8.514,62.567a1.064,1.064,0,0,0,.765,1.285,1.041,1.041,0,0,0,1.26-.781c.144-.6,9.517-53.236,8.563-63.276-.924-9.766,1.885-45.22,1.917-45.608,0-.03-.032,0-.032-.032,0-.548.163-.863-.382-.909C2375.208,695.073,2374.13,695.357,2374.082,695.943Z" transform="translate(-514.284 -473.237)" fill="#fff"/>
    <path id="Path_870" data-name="Path 870" d="M2246.412,742.267a1.061,1.061,0,0,0,.945,1.155l47.195,4.079a1.05,1.05,0,0,0,1.133-.964c0-.032,0-.065,0-.1a1.056,1.056,0,0,0-.949-1.059l-47.2-4.079A1.05,1.05,0,0,0,2246.412,742.267Z" transform="translate(-435.022 -504.097)" fill="#fff"/>
    <path id="Path_871" data-name="Path 871" d="M3082.691,354.972a1.077,1.077,0,0,0-.378,1.454,1.032,1.032,0,0,0,1.426.386l4.1-2.428,34.376,5.411v-2.153l-34.423-5.419a1.024,1.024,0,0,0-.683.131Z" transform="translate(-999.995 -238.081)" fill="#fff"/>
    <path id="Path_872" data-name="Path 872" d="M1651.407,378.764l13.776,3.733,8.546,12.7-10.5,54.934a1.064,1.064,0,0,0,.824,1.248,1.043,1.043,0,0,0,1.223-.84l10.589-55.372a1.064,1.064,0,0,0,.019-.2,1.085,1.085,0,0,0-.183-.6l-9.013-13.4a1.045,1.045,0,0,0-.592-.426l-14.2-3.849a1.1,1.1,0,0,0-.109-.023l-48.894-7.7v2.153Z" transform="translate(-0.003 -251.103)" fill="#fff"/>
    <path id="Path_873" data-name="Path 873" d="M1740.139,498.545,1726.9,524.005a1.077,1.077,0,0,0,.363,1.4l73.863,47.738a1.031,1.031,0,0,0,1.439-.33,1.078,1.078,0,0,0-.323-1.468l-73.047-47.211,12.789-24.591a1.075,1.075,0,0,0-.432-1.438A1.033,1.033,0,0,0,1740.139,498.545Z" transform="translate(-83.752 -338.874)" fill="#fff"/>
    <path id="Path_874" data-name="Path 874" d="M1740.822,550.359a1.073,1.073,0,0,0,.545,1.4L1843.5,596.68c.03.013.06.025.091.035l30.157,9.463a1.04,1.04,0,0,0,1.314-.683,1.088,1.088,0,0,0,.052-.329,1.063,1.063,0,0,0-.721-1.012l-30.111-9.447-102.091-44.9A1.036,1.036,0,0,0,1740.822,550.359Z" transform="translate(-93.189 -374.003)" fill="#fff"/>
    <path id="Path_875" data-name="Path 875" d="M1872.835,414.45,1853.7,493.81a1.067,1.067,0,0,0,.764,1.287,1.042,1.042,0,0,0,1.262-.779l19.136-79.36a1.081,1.081,0,0,0,.03-.254,1.06,1.06,0,0,0-.794-1.032A1.042,1.042,0,0,0,1872.835,414.45Z" transform="translate(-169.532 -281.499)" fill="#fff"/>
    <path id="Path_876" data-name="Path 876" d="M2050.383,396.58c-7.421,6.149-15.141,8.185-23.6,6.224-5.534-1.282-117.908-17.966-122.689-18.676a1.046,1.046,0,0,0-1.182.9,1.063,1.063,0,0,0,.882,1.206c1.17.174,117.072,17.382,122.527,18.645,9.127,2.116,17.429-.059,25.379-6.648,9.992-8.281,67.569-45.743,67.78-45.926a1.079,1.079,0,0,0,.117-1.5,1.029,1.029,0,0,0-1.47-.119C2117.914,350.869,2060.355,388.314,2050.383,396.58Z" transform="translate(-202.811 -238.41)" fill="#fff"/>
    <path id="Path_877" data-name="Path 877" d="M2244.6,419.044a1.055,1.055,0,0,0-.751.813l-13.646,67.429-12.532,41.16a1.066,1.066,0,0,0,.756,1.292,1.043,1.043,0,0,0,1.267-.771l12.542-41.206,13.526-66.832,33.452-9.163a1.061,1.061,0,0,0,.773-1.026,1.082,1.082,0,0,0-.037-.277,1.041,1.041,0,0,0-1.278-.752Z" transform="translate(-415.576 -278.938)" fill="#fff"/>
    <path id="Path_878" data-name="Path 878" d="M2294.482,442.111a1.065,1.065,0,0,0-.743,1.3,1.041,1.041,0,0,0,1.274.758l35.616-9.556a1.061,1.061,0,0,0,.778-1.027,1.082,1.082,0,0,0-.035-.272,1.042,1.042,0,0,0-1.274-.758Z" transform="translate(-466.994 -294.131)" fill="#fff"/>
    <path id="Path_879" data-name="Path 879" d="M2275.969,550.615a1.06,1.06,0,0,0,.868,1.216l34.438,3.107c.569.091.759-.285.849-.865.009-.056.356-.132.356-.187a1.057,1.057,0,0,0-.881-1.049l-34.439-3.108A1.046,1.046,0,0,0,2275.969,550.615Z" transform="translate(-454.996 -373.811)" fill="#fff"/>
    <path id="Path_880" data-name="Path 880" d="M2395.958,303.6a1.079,1.079,0,0,0-.081,1.5,1.029,1.029,0,0,0,1.473.083l37.585-34.58a1.08,1.08,0,0,0,.081-1.5,1.029,1.029,0,0,0-1.473-.083Z" transform="translate(-535.882 -181.658)" fill="#fff"/>
    <path id="Path_881" data-name="Path 881" d="M1952.587,440l-1.282,6.981a1.063,1.063,0,0,0,.833,1.241,1.044,1.044,0,0,0,1.217-.85l1.282-6.981a1.074,1.074,0,0,0,.018-.2,1.059,1.059,0,0,0-.851-1.045A1.043,1.043,0,0,0,1952.587,440Z" transform="translate(-235.521 -298.623)" fill="#fff"/>
    <path id="Path_882" data-name="Path 882" d="M1745.23,1972.7a1.079,1.079,0,0,0,.058,1.5l7.525,7.11h3.073l-9.182-8.673A1.029,1.029,0,0,0,1745.23,1972.7Z" transform="translate(-96.04 -1341.297)" fill="#fff"/>
    <path id="Path_883" data-name="Path 883" d="M1886.179,110.291c-2.317,10.4-27.465,123.329-27.961,128.668-.7,7.543,2.359,12.969,8.617,15.263l1.136.419c6.779,2.5,11.031,3.888,12.917,2.053.84-.817,1-2.091.491-3.787-1.351-4.459,2.808-16.808,4.525-21.19a1.072,1.072,0,0,0-.582-1.383,1.037,1.037,0,0,0-1.356.593c-.263.672-6.423,16.526-4.581,22.608.243.8.266,1.42.062,1.618-1.088,1.058-6.913-1.091-10.768-2.514l-1.14-.42c-6.763-2.48-7.671-8.474-7.247-13.061.5-5.341,27.776-127.761,28.052-129a1.1,1.1,0,0,0,.026-.236,1.075,1.075,0,0,0-.335-.781L1772.285.019h-3.073Z" transform="translate(-112.439)" fill="#fff"/>
    <path id="Path_884" data-name="Path 884" d="M2107.071,493.915l-1.858,14.313h-7.671a1.049,1.049,0,0,0-1.031.91l-1.342,9.356-12.364-3.536a1.04,1.04,0,0,0-1.286.737,1.066,1.066,0,0,0,.722,1.312l13.505,3.863a1.027,1.027,0,0,0,.85-.132,1.065,1.065,0,0,0,.463-.738l1.383-9.643h7.684a1.05,1.05,0,0,0,1.033-.924l1.977-15.237a1.1,1.1,0,0,0,.01-.141,1.042,1.042,0,0,0-2.077-.138Z" transform="translate(-323.53 -335.308)" fill="#fff"/>
    <path id="Path_885" data-name="Path 885" d="M2073.181,627.809a1.064,1.064,0,0,0,.087-.25A1.047,1.047,0,0,1,2073.181,627.809Z" transform="translate(-317.921 -426.726)" fill="#fff"/>
    <path id="Path_886" data-name="Path 886" d="M2091.392,611.454l-5.552,9.37c-17.581-6.026-17.684-5.967-18.219-5.659a1.072,1.072,0,0,0,.287,1.968,1.1,1.1,0,0,0,.175.024c1.239.3,11.544,3.781,17.885,5.955a1.034,1.034,0,0,0,1.225-.458l5.985-10.1a1.078,1.078,0,0,0-.354-1.461A1.032,1.032,0,0,0,2091.392,611.454Zm-22.329,5.121a1.076,1.076,0,0,0,.087-.25,1.076,1.076,0,0,1-.087.25,1.01,1.01,0,0,1-.14.213A1.01,1.01,0,0,0,2069.063,616.575Z" transform="translate(-313.802 -415.472)" fill="#fff"/>
    <path id="Path_887" data-name="Path 887" d="M2172.849,340.822,2149.6,463.129c-.109.574,1.643,1.079,2.048.4l23.366-123.028c-.1.652-.1.584-.1.517a1.059,1.059,0,0,0-.845-1.043A1.044,1.044,0,0,0,2172.849,340.822Z" transform="translate(-369.574 -231.481)" fill="#fff"/>
    <path id="Path_888" data-name="Path 888" d="M2052.494,76.6c.091.119,9.14,11.984,13.2,17.083,3.925,4.927,15.211,12.923,16.871,14.086l21.264,35.78a1.031,1.031,0,0,0,1.432.358,1.077,1.077,0,0,0,.351-1.461l-21.381-35.976a1.05,1.05,0,0,0-.3-.328c-.126-.088-12.657-8.831-16.615-13.8-4.048-5.082-13.083-16.929-13.174-17.048a1.029,1.029,0,0,0-1.463-.186A1.079,1.079,0,0,0,2052.494,76.6Z" transform="translate(-303.788 -50.609)" fill="#fff"/>
    <path id="Path_889" data-name="Path 889" d="M1855.238,1863.715a1.079,1.079,0,0,0,.17,1.494l52.421,42.39h3.359l-54.484-44.058A1.029,1.029,0,0,0,1855.238,1863.715Z" transform="translate(-170.44 -1267.58)" fill="#fff"/>
    <path id="Path_890" data-name="Path 890" d="M2037.677,15.9,2091.3,60.68l4.377,25.47a1.045,1.045,0,0,0,1.207.864,1.059,1.059,0,0,0,.863-1.047,1.106,1.106,0,0,0-.016-.185l-4.444-25.86a1.063,1.063,0,0,0-.367-.64l-53.935-45.041L2021.382.019h-3.359Z" transform="translate(-280.634)" fill="#fff"/>
    <path id="Path_891" data-name="Path 891" d="M2267,101.763a1.078,1.078,0,0,0-.128,1.5,1.028,1.028,0,0,0,1.469.13c.191-.163,19.081-16.321,24.839-18.485,5.526-2.076,9.507-2.27,13.506,2.881,4.213,5.426,26.077,31.427,26.257,31.64a1.028,1.028,0,0,0,1.471.111,1.079,1.079,0,0,0,.109-1.5c-.18-.213-22.015-26.18-26.2-31.572-4.747-6.115-9.775-5.844-15.863-3.557S2267.783,101.088,2267,101.763Z" transform="translate(-448.687 -55.023)" fill="#fff"/>
    <path id="Path_892" data-name="Path 892" d="M2344.606,93.124a1.079,1.079,0,0,0-.112,1.5,1.029,1.029,0,0,0,1.47.115l35.276-30.87a1.079,1.079,0,0,0,.112-1.5,1.029,1.029,0,0,0-1.471-.115Z" transform="translate(-501.157 -41.897)" fill="#fff"/>
    <path id="Path_893" data-name="Path 893" d="M2372.171,1823.041l-23.268,28.941a1.077,1.077,0,0,0-.228.806,1.066,1.066,0,0,0,.416.724l1.981,26.6h2.181c-1.012-13.8-2.041-27.648-2.041-27.648l22.573-28.076a1.079,1.079,0,0,0-.147-1.5A1.028,1.028,0,0,0,2372.171,1823.041Z" transform="translate(-504.148 -1240.094)" fill="#fff"/>
    <path id="Path_894" data-name="Path 894" d="M2358.137,27.525a1.043,1.043,0,1,0,2.083-.1c.016-.435-.96-13.9-1.95-27.4h-2.181Z" transform="translate(-509.166)" fill="#fff"/>
    <path id="Path_895" data-name="Path 895" d="M2396.8,1889.567a1.079,1.079,0,0,0,.11,1.5,1.029,1.029,0,0,0,1.471-.112l23.1-25.566a1.739,1.739,0,0,0,.24-.916c0-.3-.11-.374-.35-.585a1.029,1.029,0,0,0-1.471.112Z" transform="translate(-536.517 -1267.796)" fill="#fff"/>
    <g id="Group_298" data-name="Group 298" transform="translate(1980.837 192.046)">
      <path id="Path_896" data-name="Path 896" d="M2769.406,601.945l1.175,9.223a1.074,1.074,0,0,0,.221.529l11.336,14.407-8.647,24.708a1.063,1.063,0,0,0,.793,1.268,1.043,1.043,0,0,0,1.243-.809l8.755-25.205a1.083,1.083,0,0,0-.2-.9L2772.612,610.6l-1.137-8.927a1.047,1.047,0,0,0-1.169-.918A1.06,1.06,0,0,0,2769.406,601.945Z" transform="translate(-2769.398 -600.744)" fill="#fff"/>
    </g>
    <g id="Group_299" data-name="Group 299" transform="translate(2051.923 110.754)">
      <path id="Path_897" data-name="Path 897" d="M2989.058,348.142l11.927,13.754c.376,2.463,2.75,17.925,3.93,23.244a5.835,5.835,0,0,0,2.523,4.082c1.767,1,3.776.275,4.856-.113.2-.074.38-.139.517-.174a1.06,1.06,0,0,0,.791-1.031,1.105,1.105,0,0,0-.031-.259,1.042,1.042,0,0,0-1.265-.774c-.186.047-.426.131-.7.231-.879.316-2.206.792-3.154.258a3.9,3.9,0,0,1-1.5-2.689c-1.24-5.592-3.923-23.231-3.95-23.408a1.074,1.074,0,0,0-.249-.542l-12.13-13.988a1.029,1.029,0,0,0-1.472-.092A1.08,1.08,0,0,0,2989.058,348.142Z" transform="translate(-2988.797 -346.373)" fill="#fff"/>
    </g>
    <g id="Group_300" data-name="Group 300" transform="translate(2092.74 120.141)">
      <path id="Path_898" data-name="Path 898" d="M3115.115,383.9a1.079,1.079,0,0,0-.064,1.5,1.029,1.029,0,0,0,1.473.065l8.722-8.153a1.078,1.078,0,0,0,.064-1.5,1.028,1.028,0,0,0-1.473-.066Z" transform="translate(-3114.777 -375.472)" fill="#fff"/>
    </g>
    <g id="Group_301" data-name="Group 301" transform="translate(2032.777 96.603)">
      <path id="Path_899" data-name="Path 899" d="M2930.118,331.576a1.077,1.077,0,0,0-.2,1.491,1.03,1.03,0,0,0,1.462.2l36.773-28.6,9.64,12.012-2.087,1.88a1.072,1.072,0,0,0-.352.768,1.045,1.045,0,0,0,.31.787l8.8,8.84,8.1,10.162-10.677,7.74c-2.48-.693-13.3-3.422-17.86.335a1.078,1.078,0,0,0-.156,1.5,1.029,1.029,0,0,0,1.467.159c3.494-2.88,13.058-.838,16.448.192a1.031,1.031,0,0,0,.9-.152l11.992-8.693a1.068,1.068,0,0,0,.429-.723,1.133,1.133,0,0,0,.01-.143,1.078,1.078,0,0,0-.234-.671l-8.835-11.088a1.06,1.06,0,0,0-.077-.087l-8.04-8.081,2-1.8a1.079,1.079,0,0,0,.116-1.471l-10.915-13.6a1.028,1.028,0,0,0-1.439-.172Z" transform="translate(-2929.708 -302.137)" fill="#fff"/>
    </g>
    <g id="Group_302" data-name="Group 302" transform="translate(1847.085 20.1)">
      <path id="Path_900" data-name="Path 900" d="M2482,181.268l-42.481,24.519-82.367,29.968a1.075,1.075,0,0,0-.452,1.432,1.033,1.033,0,0,0,1.4.461l82.4-29.989,42.6-24.585a1.022,1.022,0,0,0,.153-.108L2623.812,63.88a1.078,1.078,0,0,0,.136-1.5,1.029,1.029,0,0,0-1.469-.139Z" transform="translate(-2356.588 -61.998)" fill="#fff"/>
    </g>
    <g id="Group_303" data-name="Group 303" transform="translate(1926.831 82.907)">
      <path id="Path_901" data-name="Path 901" d="M2602.944,257.574l74.964,95.215a1.029,1.029,0,0,0,1.466.164,1.079,1.079,0,0,0,.16-1.5l-74.965-95.216a1.029,1.029,0,0,0-1.466-.163A1.079,1.079,0,0,0,2602.944,257.574Z" transform="translate(-2602.714 -255.844)" fill="#fff"/>
    </g>
    <g id="Group_304" data-name="Group 304" transform="translate(1953.432 36.784)">
      <path id="Path_902" data-name="Path 902" d="M2685.188,193.649a1.08,1.08,0,0,0-.129,1.5,1.028,1.028,0,0,0,1.469.131l93.427-79.91a1.079,1.079,0,0,0,.129-1.5,1.029,1.029,0,0,0-1.469-.132Z" transform="translate(-2684.815 -113.491)" fill="#fff"/>
    </g>
    <g id="Group_305" data-name="Group 305" transform="translate(1972.052 49.415)">
      <path id="Path_903" data-name="Path 903" d="M2742.514,154.2l72.915,93.311a1.029,1.029,0,0,0,1.466.169,1.079,1.079,0,0,0,.165-1.5l-72.915-93.311a1.029,1.029,0,0,0-1.466-.169A1.079,1.079,0,0,0,2742.514,154.2Z" transform="translate(-2742.287 -152.475)" fill="#fff"/>
    </g>
    <g id="Group_306" data-name="Group 306" transform="translate(1998.7 26.123)">
      <path id="Path_904" data-name="Path 904" d="M2824.782,82.34l64.582,77.282a1.028,1.028,0,0,0,1.47.119,1.079,1.079,0,0,0,.117-1.5L2826.369,80.96a1.029,1.029,0,0,0-1.47-.12A1.078,1.078,0,0,0,2824.782,82.34Z" transform="translate(-2824.532 -80.586)" fill="#fff"/>
    </g>
    <g id="Group_307" data-name="Group 307" transform="translate(2037.37 17.113)">
      <path id="Path_905" data-name="Path 905" d="M2957.665,58.044c-4.018.945-12.81,2.319-12.9,2.332a1.063,1.063,0,0,0-.873,1.212,1.045,1.045,0,0,0,1.188.891c.364-.057,8.959-1.4,13.052-2.363,4.142-.975,13.851-5.118,14.262-5.295a1.064,1.064,0,0,0,.64-.981,1.081,1.081,0,0,0-.082-.411,1.035,1.035,0,0,0-1.365-.57C2971.491,52.9,2961.634,57.11,2957.665,58.044Z" transform="translate(-2943.882 -52.778)" fill="#fff"/>
    </g>
    <path id="Path_906" data-name="Path 906" d="M3125.365,261.124a1.029,1.029,0,0,0,1.465.176l24.429-19.672v-2.711l-25.722,20.712A1.078,1.078,0,0,0,3125.365,261.124Z" transform="translate(-1029.042 -161.495)" fill="#fff"/>
    <path id="Path_907" data-name="Path 907" d="M1873.848,1732.879l-26.727,53.273-23.912,32.883h2.6l23.042-31.687a1.049,1.049,0,0,0,.091-.149l26.766-53.351a1.077,1.077,0,0,0,.115-.484,1.066,1.066,0,0,0-.568-.948A1.033,1.033,0,0,0,1873.848,1732.879Z" transform="translate(-148.94 -1179.017)" fill="#fff"/>
    <path id="Path_908" data-name="Path 908" d="M1644.9,40.4,1621.4,62.516l-18.512,14.907v2.711l19.836-15.973c.021-.017.041-.034.061-.053L1646.391,41.9a1,1,0,0,0,.131-.148L1676.869.019h-2.6Z" transform="translate(-0.003)" fill="#fff"/>
    <path id="Path_909" data-name="Path 909" d="M3086.411,194.778a1.029,1.029,0,0,0,1.468.146l37.039-31.063v-2.754l-38.364,32.174A1.078,1.078,0,0,0,3086.411,194.778Z" transform="translate(-1002.701 -108.895)" fill="#fff"/>
    <path id="Path_910" data-name="Path 910" d="M1602.886,143.8v2.754l10.928-9.165a1.079,1.079,0,0,0,.143-1.5,1.028,1.028,0,0,0-1.468-.146Z" transform="translate(-0.003 -91.586)" fill="#fff"/>
    <path id="Path_911" data-name="Path 911" d="M3138.454,95.825l21.641,26.29v-3.309l-20.043-24.35a1.029,1.029,0,0,0-1.469-.131A1.079,1.079,0,0,0,3138.454,95.825Z" transform="translate(-1037.877 -63.583)" fill="#fff"/>
    <path id="Path_912" data-name="Path 912" d="M1627.181,203.225l-17.068,11.5a1.067,1.067,0,0,0-.456.726l-5.239,34.663a1.078,1.078,0,0,0,.194.8,1.039,1.039,0,0,0,.693.418c6.939.988,11.338,5.545,14.25,8.561.7.729,1.311,1.358,1.849,1.822,2.763,2.382,5.812,2.992,8.585,1.717,2.282-1.05,13.236-16.2,16.538-20.817a1.08,1.08,0,0,0,.2-.627,1.064,1.064,0,0,0-.014-.173l-3.624-22.338a1.073,1.073,0,0,0-.231-.51L1602.886,170.4v3.309Zm13.9,16.883,3.505,21.611c-6.611,9.227-14.135,19.062-15.461,19.775-1.99.915-4.257.418-6.373-1.406-.465-.4-1.041-1-1.709-1.69-2.785-2.885-7.36-7.623-14.4-9l5.011-33.158,16.884-11.375Z" transform="translate(-0.003 -115.178)" fill="#fff"/>
    <path id="Path_913" data-name="Path 913" d="M1640,331.227l-6.424,30.23a1.063,1.063,0,0,0,.8,1.265,1.043,1.043,0,0,0,1.24-.814l6.425-30.23a1.109,1.109,0,0,0,.023-.226,1.06,1.06,0,0,0-.822-1.039A1.044,1.044,0,0,0,1640,331.227Z" transform="translate(-20.732 -224.719)" fill="#fff"/>
    <path id="Path_914" data-name="Path 914" d="M1949.793,1726.7l-6.209,14.1-28.578,52c-.01.018-.02.036-.029.055-.114.238-4.844,10.174-10.607,22.248h2.32c5.439-11.4,9.856-20.673,10.15-21.291l28.586-52.011a.921.921,0,0,0,.042-.085l6.228-14.144a1.076,1.076,0,0,0,.092-.435C1951.788,1726.732,1950.029,1726.165,1949.793,1726.7Z" transform="translate(-203.805 -1175.084)" fill="#fff"/>
    <path id="Path_915" data-name="Path 915" d="M1827.909,42.682q-.8,1.589-1.535,3.025c-3.124,6.123-5.185,10.167-4.733,13.312.463,3.219,5.413,41.172,5.463,41.555a1.047,1.047,0,0,0,1.171.914,1.058,1.058,0,0,0,.9-1.195c-.05-.383-5-38.35-5.467-41.583-.349-2.464,1.691-6.473,4.521-12.021q.736-1.443,1.541-3.037c2.229-4.437,12.756-26.448,20.958-43.633h-2.32C1840.274,17.05,1830.091,38.338,1827.909,42.682Z" transform="translate(-147.838)" fill="#fff"/>
    <path id="Path_916" data-name="Path 916" d="M1828.061,231.9a1.044,1.044,0,0,0,1.007,1.1l31.25,1.072,44.138,40.535a1.028,1.028,0,0,0,1.473-.079,1.078,1.078,0,0,0-.078-1.5l-44.42-40.795a1.032,1.032,0,0,0-.663-.273l-31.63-1.085A1.052,1.052,0,0,0,1828.061,231.9Z" transform="translate(-152.22 -156.053)" fill="#fff"/>
    <path id="Path_917" data-name="Path 917" d="M2018.6,1810.077l-27.668,61.117h2.3l27.265-60.226a1.082,1.082,0,0,0,.1-.445,1.066,1.066,0,0,0-.607-.967A1.034,1.034,0,0,0,2018.6,1810.077Z" transform="translate(-262.319 -1231.176)" fill="#fff"/>
    <path id="Path_918" data-name="Path 918" d="M1851.2,99.884a1.073,1.073,0,0,0,.51,1.412,1.034,1.034,0,0,0,1.384-.521L1898.7.019h-2.3Z" transform="translate(-167.796)" fill="#fff"/>
    <path id="Path_919" data-name="Path 919" d="M1732.119,125.452c.723.636,17.742,15.619,21.24,17.844,4.072,2.59,6.169,1.588,9.332-1.639a1.079,1.079,0,0,0,0-1.5,1.029,1.029,0,0,0-1.475,0c-2.892,2.951-3.9,3.151-6.753,1.338-3.363-2.139-20.8-17.494-20.98-17.649a1.029,1.029,0,0,0-1.471.11A1.079,1.079,0,0,0,1732.119,125.452Z" transform="translate(-87.12 -83.529)" fill="#fff"/>
    <path id="Path_920" data-name="Path 920" d="M1872.924,172.133a1.039,1.039,0,0,0,1.3.7c1.762-.554,6.862-1.917,9.275-1.572,2.887.413,4,1.127,7,4.492a32.144,32.144,0,0,0,8.19,6.208,1.033,1.033,0,0,0,1.4-.47,1.083,1.083,0,0,0,.112-.479,1.067,1.067,0,0,0-.573-.95,30.563,30.563,0,0,1-7.587-5.74c-3.352-3.758-4.818-4.676-8.255-5.168-3.367-.481-9.9,1.559-10.179,1.646A1.068,1.068,0,0,0,1872.924,172.133Z" transform="translate(-182.516 -114.287)" fill="#fff"/>
    <path id="Path_921" data-name="Path 921" d="M1937.014,1817.14a1.078,1.078,0,0,0,.16,1.5l70.187,57.483h3.332l-72.213-59.142A1.029,1.029,0,0,0,1937.014,1817.14Z" transform="translate(-225.717 -1236.099)" fill="#fff"/>
    <path id="Path_922" data-name="Path 922" d="M2191.295,30.062a1.029,1.029,0,0,0,1.466-.164,1.079,1.079,0,0,0-.161-1.5L2157.944.019h-3.331Z" transform="translate(-372.969)" fill="#fff"/>
    <path id="Path_923" data-name="Path 923" d="M1954.1,1752.03l-23.624,41.373a1.075,1.075,0,0,0,.377,1.454,1.032,1.032,0,0,0,1.426-.384L1955.9,1753.1a1.077,1.077,0,0,0-.377-1.454A1.031,1.031,0,0,0,1954.1,1752.03Z" transform="translate(-221.354 -1191.997)" fill="#fff"/>
    <path id="Path_924" data-name="Path 924" d="M2170.057,1965.624a1.038,1.038,0,0,0-.7.412l-8,10.721h2.621l6.386-8.562,10.409,8.562h3.323l-13.257-10.9A1.027,1.027,0,0,0,2170.057,1965.624Z" transform="translate(-377.527 -1336.738)" fill="#fff"/>
    <path id="Path_925" data-name="Path 925" d="M2239.384,14.91a1.027,1.027,0,0,0,1.068.149l9.437-4.147a1.073,1.073,0,0,0,.545-1.4,1.035,1.035,0,0,0-1.37-.556l-8.86,3.893L2224.6.019h-3.323Z" transform="translate(-418.036)" fill="#fff"/>
    <path id="Path_926" data-name="Path 926" d="M2134.839,12.863l18.946,16.532-7.434,10.21a1.077,1.077,0,0,0,.215,1.488,1.029,1.029,0,0,0,1.459-.22l8.015-11.007a1.078,1.078,0,0,0-.159-1.443L2136.943,11.9,2145.8.019h-2.621l-8.5,11.392A1.078,1.078,0,0,0,2134.839,12.863Z" transform="translate(-359.354)" fill="#fff"/>
    <path id="Path_927" data-name="Path 927" d="M1786.887,1705.717c-3.34,3.266-10.526,15.3-11.2,22.531-.376,4.034-5.946,11.274-10.423,17.093a80.026,80.026,0,0,0-6.315,8.888c-3.133,5.821-16.585,22.168-24.829,28.636-3.728,2.925-9.114,6.984-14.322,10.91-3.206,2.417-6.466,4.874-9.372,7.091h3.489c2.289-1.737,4.721-3.569,7.123-5.38,5.216-3.932,10.61-8,14.354-10.935,8.582-6.733,22.1-23.189,25.385-29.3a80.642,80.642,0,0,1,6.128-8.6c4.886-6.351,10.425-13.551,10.858-18.205.6-6.42,7.454-18.153,10.567-21.2a1.079,1.079,0,0,0,.031-1.5A1.028,1.028,0,0,0,1786.887,1705.717Z" transform="translate(-72.699 -1160.846)" fill="#fff"/>
    <path id="Path_928" data-name="Path 928" d="M1679.242,5.41c-6.958,5.624-4.645,10-2.786,13.52l.3.579c1.861,3.581,12.211,25.706,12.315,25.929a1.034,1.034,0,0,0,1.39.5,1.071,1.071,0,0,0,.492-1.418c-.426-.912-10.473-22.389-12.355-26.009l-.311-.592c-1.792-3.394-3.341-6.326,2.246-10.843,2.207-1.784,5.482-4.3,9.119-7.058h-3.489C1683.427,2.11,1681,3.988,1679.242,5.41Z" transform="translate(-48.441)" fill="#fff"/>
    <path id="Path_929" data-name="Path 929" d="M1841.761,1770.505c-.137.276-3.352,6.825-2.344,11.955.94,4.8,4.372,18.724,4.518,19.315a1.042,1.042,0,0,0,1.266.772,1.06,1.06,0,0,0,.788-1.031,1.094,1.094,0,0,0-.031-.26c-.036-.144-3.565-14.466-4.5-19.213-.862-4.4,2.13-10.514,2.16-10.576a1.074,1.074,0,0,0-.459-1.429A1.034,1.034,0,0,0,1841.761,1770.505Z" transform="translate(-159.765 -1204.449)" fill="#fff"/>
    <path id="Path_930" data-name="Path 930" d="M1803.333,1615.076c-.016.02-.032.039-.046.059l-20.784,28.641a1.077,1.077,0,0,0,.23,1.5l25.108,18.35a1.029,1.029,0,0,0,1.453-.242l20.616-29.159a1.077,1.077,0,0,0-.236-1.485,1.03,1.03,0,0,0-1.456.24l-20.008,28.3-23.4-17.1,20.131-27.742,6.624-7.886,9.627,7.736.042.032,11.557,8.359a1.029,1.029,0,0,0,1.382-.159l9.092-10.385a1.078,1.078,0,0,0-.084-1.5,1.028,1.028,0,0,0-1.473.085l-8.471,9.676-10.775-7.793-10.393-8.352a1.028,1.028,0,0,0-1.437.144Z" transform="translate(-121.285 -1093.648)" fill="#fff"/>
    <path id="Path_931" data-name="Path 931" d="M1842.6,1658.093l-20.679,29.942a1.077,1.077,0,0,0,.252,1.482,1.03,1.03,0,0,0,1.453-.257l20.678-29.942a1.078,1.078,0,0,0-.252-1.483A1.029,1.029,0,0,0,1842.6,1658.093Z" transform="translate(-147.944 -1128.548)" fill="#fff"/>
    <path id="Path_932" data-name="Path 932" d="M1873.838,1618.361l-34.41,46.948a1.078,1.078,0,0,0,.211,1.489,1.029,1.029,0,0,0,1.46-.215l33.937-46.3,10.189,4.014a1.036,1.036,0,0,0,1.349-.609,1.081,1.081,0,0,0,.071-.383,1.065,1.065,0,0,0-.667-.993l-10.927-4.3A1.03,1.03,0,0,0,1873.838,1618.361Z" transform="translate(-159.764 -1101.706)" fill="#fff"/>
    <path id="Path_933" data-name="Path 933" d="M2023.581,1356.193a1.033,1.033,0,0,0-.4.2l-5.659,4.558c-6.658-.752-88.229-9.973-94.642-10.892-4.754-.68-6.989-.4-7.968.987-.94,1.333-.232,3.152.382,4.4.466.95,1.714,3.881,3.295,7.591,5.043,11.839,13.484,31.654,18.326,39.186,4.63,7.2,5.177,16.172,1.669,27.418-1.848,5.923-7.576,37.686-7.139,39.523a1.042,1.042,0,0,0,1.264.776,1.065,1.065,0,0,0,.781-1.185v-.018c0-2.226,4.93-31.551,7.082-38.452,1.364-4.373,5.513-17.678-1.912-29.229-4.744-7.38-13.469-27.864-18.157-38.867-1.655-3.885-2.851-6.693-3.342-7.694-.825-1.684-.607-2.137-.554-2.212.188-.267,1.148-.814,5.984-.121,6.683.957,94.245,10.848,95.129,10.948a1.026,1.026,0,0,0,.761-.222l5.815-4.683,54.751-11.618a1.06,1.06,0,0,0,.8-1.034,1.111,1.111,0,0,0-.028-.248,1.043,1.043,0,0,0-1.257-.787Z" transform="translate(-210.62 -916.859)" fill="#fff"/>
    <path id="Path_934" data-name="Path 934" d="M1975.035,1672.936a1.079,1.079,0,0,0,.2,1.491L2024,1712.31a1.03,1.03,0,0,0,1.462-.2,1.927,1.927,0,0,0-.2-1.49l-48.76-37.884A1.03,1.03,0,0,0,1975.035,1672.936Z" transform="translate(-251.431 -1138.602)" fill="#fff"/>
    <path id="Path_935" data-name="Path 935" d="M1979.161,1658.616a1.044,1.044,0,0,0,1.212.857c2.828-.522,7.584.671,11.343,4.523,3.8,3.9,37.56,28.99,38.962,30.029a1.03,1.03,0,0,0,1.457-.236,1.078,1.078,0,0,0-.231-1.486c-.342-.253-35.024-26.032-38.709-29.808-4.313-4.42-9.734-5.754-13.193-5.115A1.06,1.06,0,0,0,1979.161,1658.616Z" transform="translate(-254.352 -1128.269)" fill="#fff"/>
    <path id="Path_936" data-name="Path 936" d="M2175.506,1512.064l-51.665,69.2a1.074,1.074,0,0,0-.1.158l-17.641,35.023a1.074,1.074,0,0,0,.451,1.432,1.034,1.034,0,0,0,1.4-.46l17.6-34.94,51.608-69.124a1.078,1.078,0,0,0-.2-1.491A1.03,1.03,0,0,0,2175.506,1512.064Z" transform="translate(-340.097 -1029.854)" fill="#fff"/>
    <path id="Path_937" data-name="Path 937" d="M2122.743,1800.9a1.078,1.078,0,0,0,.179,1.493l29.3,23.378a1.029,1.029,0,0,0,1.464-.183,1.079,1.079,0,0,0-.178-1.493l-29.3-23.378A1.03,1.03,0,0,0,2122.743,1800.9Z" transform="translate(-351.275 -1225.111)" fill="#fff"/>
    <path id="Path_938" data-name="Path 938" d="M2133.26,1780.276l30.49,25.094a1.029,1.029,0,0,0,1.467-.161,1.079,1.079,0,0,0-.158-1.5l-30.711-25.224C2133.9,1778.122,2132.811,1779.908,2133.26,1780.276Z" transform="translate(-358.462 -1210.208)" fill="#fff"/>
    <path id="Path_939" data-name="Path 939" d="M2054.9,1542.627c-.561.728-1.1,1.381-1.569,1.957-1.644,2-2.728,3.328-2.511,4.913.148,1.07.883,2.007,2.382,3.038,3.654,2.512,66.126,56.926,66.757,57.475a1.029,1.029,0,0,0,1.47-.118,1.079,1.079,0,0,0-.116-1.5c-2.579-2.246-63.194-55.042-66.945-57.622-1.156-.795-1.444-1.293-1.483-1.571-.093-.649.853-1.8,2.046-3.25.482-.588,1.029-1.254,1.61-2.008,3.4-4.412,27.769-30.235,28.014-30.5a1.078,1.078,0,0,0-.028-1.5,1.028,1.028,0,0,0-1.475.029C2082.045,1513.037,2058.363,1538.131,2054.9,1542.627Z" transform="translate(-302.786 -1029.854)" fill="#fff"/>
    <path id="Path_940" data-name="Path 940" d="M2088.563,1481.51c-.246.376-.7.475,1.649,8.674a1.053,1.053,0,0,0,.7.72,1.026,1.026,0,0,0,.972-.2c5.224-4.442,11.827-3.658,19.1,2.267,9.764,7.957,47.615,38.322,48,38.628a1.029,1.029,0,0,0,1.465-.178,1.079,1.079,0,0,0-.175-1.494c-.381-.306-38.227-30.666-47.985-38.617-9.328-7.6-16.129-6.221-20.476-3.209a30.346,30.346,0,0,1-1.236-6.432C2090.8,1481.194,2088.882,1481.021,2088.563,1481.51Z" transform="translate(-328.18 -1007.712)" fill="#fff"/>
    <path id="Path_941" data-name="Path 941" d="M2218.916,1583.816a1.078,1.078,0,0,0-.091.1l-48.545,64.308a1.078,1.078,0,0,0,.191,1.492,1.029,1.029,0,0,0,1.462-.194l48.5-64.252c.6-.607,6.475-6.585,9.3-9.629,1.676-1.808,18.142-3.037,33.094-3.18a1.053,1.053,0,0,0,1.033-1.064v-.01a1.053,1.053,0,0,0-1.052-1.054c-5.227.05-31.462.47-34.59,3.846C2225.279,1577.353,2218.979,1583.751,2218.916,1583.816Z" transform="translate(-383.413 -1069.53)" fill="#fff"/>
    <path id="Path_942" data-name="Path 942" d="M2111.346,1518l-47.84,61.405a1.079,1.079,0,0,0,.163,1.5,1.029,1.029,0,0,0,1.466-.167l47.179-60.562,111.453,93.7a1.029,1.029,0,0,0,1.468-.145,1.079,1.079,0,0,0-.142-1.5l-112.27-94.387a1.028,1.028,0,0,0-.771-.237A1.04,1.04,0,0,0,2111.346,1518Z" transform="translate(-311.226 -1033.883)" fill="#fff"/>
    <path id="Path_943" data-name="Path 943" d="M2043.732,1426.317c-26.254,5.436-56.3,20.768-56.6,20.922a1.073,1.073,0,0,0-.462,1.428,1.034,1.034,0,0,0,1.4.472c.3-.153,30.1-15.358,56.074-20.737,26.08-5.4,105.059-15.519,105.742-15.605a1.057,1.057,0,0,0,.914-1.055c0-.044-.784-.623-.79-.667-.071-.583.19-.462-.381-.39C2148.946,1410.771,2069.889,1420.9,2043.732,1426.317Z" transform="translate(-259.365 -959.564)" fill="#fff"/>
    <path id="Path_944" data-name="Path 944" d="M2152.393,1387.885l4.977,22.983a1.043,1.043,0,0,0,1.243.809,1.06,1.06,0,0,0,.818-1.038,1.109,1.109,0,0,0-.024-.23l-4.977-22.983a1.043,1.043,0,0,0-1.244-.809A1.065,1.065,0,0,0,2152.393,1387.885Z" transform="translate(-371.451 -943.089)" fill="#fff"/>
    <path id="Path_945" data-name="Path 945" d="M2033.444,1374.389l10.9,37.173a1.04,1.04,0,0,0,1.3.714,1.062,1.062,0,0,0,.745-1.019,1.077,1.077,0,0,0-.044-.305l-10.9-37.172a1.04,1.04,0,0,0-1.3-.714A1.067,1.067,0,0,0,2033.444,1374.389Z" transform="translate(-291.029 -933.992)" fill="#fff"/>
    <path id="Path_946" data-name="Path 946" d="M1931.474,1405.119a1.064,1.064,0,0,0-.2,2.118c.419.042,42.014,4.156,49.462,5.479,7.693,1.368,24.588-2.587,25.3-2.756.482-.114.09-2.205-.471-2.072-.171.04-17.2,4.026-24.474,2.733C1973.568,1409.282,1933.189,1405.288,1931.474,1405.119Z" transform="translate(-221.354 -955.529)" fill="#fff"/>
    <path id="Path_947" data-name="Path 947" d="M1960.975,1452.248a1.07,1.07,0,0,0-.672,1.34,1.039,1.039,0,0,0,1.313.684l30.272-9.988a1.063,1.063,0,0,0,.722-1.012,1.1,1.1,0,0,0-.051-.328,1.039,1.039,0,0,0-1.313-.685Z" transform="translate(-241.582 -980.795)" fill="#fff"/>
    <path id="Path_948" data-name="Path 948" d="M1983.358,1412.039l7.781,15.242a1.033,1.033,0,0,0,1.407.452,1.075,1.075,0,0,0,.443-1.435l-7.782-15.242a1.033,1.033,0,0,0-1.406-.452A1.074,1.074,0,0,0,1983.358,1412.039Z" transform="translate(-257.121 -959.267)" fill="#fff"/>
    <path id="Path_949" data-name="Path 949" d="M2212.944,1450.635a1.05,1.05,0,0,0,1.033.972c1.96.432,16.11,10.159,22.168,14.326,2.331,1.6,4.171,2.868,4.988,3.4,2.522,1.637,7.259,1.1,11.84.585a40.176,40.176,0,0,1,6.321-.421c4.739.323,48.247-.656,49.292-.709a1.055,1.055,0,0,0,.991-1.062c0-.017,0-.415,0-.433-.029-.587-.519-.66-1.094-.63-.255.013-44.432,1.025-49.051.711a41.32,41.32,0,0,0-6.689.429c-4.026.455-8.588.97-10.49-.264-.793-.515-2.624-1.773-4.941-3.367-16.549-11.377-22.021-14.808-23.419-14.685A1.053,1.053,0,0,0,2212.944,1450.635Z" transform="translate(-412.397 -985.823)" fill="#fff"/>
    <path id="Path_950" data-name="Path 950" d="M2377.491,1426.426l3.738,47.9a1.042,1.042,0,0,0,2.083-.083c0-.028,0-.057,0-.086l-3.739-47.9a1.043,1.043,0,1,0-2.08.169Z" transform="translate(-523.631 -969.648)" fill="#fff"/>
    <path id="Path_951" data-name="Path 951" d="M2419.408,1420.807l3.414,48.818a1.042,1.042,0,0,0,2.083-.075c0-.025,0-.051,0-.077l-3.414-48.818a1.05,1.05,0,0,0-1.115-.985A1.063,1.063,0,0,0,2419.408,1420.807Z" transform="translate(-551.968 -965.842)" fill="#fff"/>
    <path id="Path_952" data-name="Path 952" d="M1994.109,1578.95l-6.079-2.772a1.035,1.035,0,0,0-1.378.537,1.074,1.074,0,0,0,.527,1.406l6.706,3.057a1.027,1.027,0,0,0,1.132-.188l25.89-24.307,3.455,1.585L2150.147,1661.8a1.029,1.029,0,0,0,1.467-.161,1.078,1.078,0,0,0-.158-1.5l-125.89-103.62a1.016,1.016,0,0,0-.227-.142l-4.2-1.93a1.027,1.027,0,0,0-1.134.187Z" transform="translate(-259.366 -1058.73)" fill="#fff"/>
    <g id="Group_308" data-name="Group 308" transform="translate(1877.315 66.494)">
      <path id="Path_953" data-name="Path 953" d="M2450.1,206.9l15.005,21.3a1.03,1.03,0,0,0,1.461.2,1.078,1.078,0,0,0,.2-1.491l-15.005-21.3a1.029,1.029,0,0,0-1.461-.2A1.078,1.078,0,0,0,2450.1,206.9Z" transform="translate(-2449.891 -205.188)" fill="#fff"/>
    </g>
    <path id="Path_954" data-name="Path 954" d="M2571.972,1955.2l-8.875,14.182h2.475l8.158-13.038a1.078,1.078,0,0,0-.318-1.469A1.031,1.031,0,0,0,2571.972,1955.2Z" transform="translate(-649.102 -1329.365)" fill="#fff"/>
    <path id="Path_955" data-name="Path 955" d="M2460.744,17.458l-32.526,26.693a1.078,1.078,0,0,0-.158,1.5,1.029,1.029,0,0,0,1.466.162l32.659-26.8a1.079,1.079,0,0,0,.226-.256L2474.132.019h-2.475Z" transform="translate(-557.662)" fill="#fff"/>
    <g id="Group_309" data-name="Group 309" transform="translate(1902.826 17.113)">
      <path id="Path_956" data-name="Path 956" d="M2528.882,54.54l45.124,53.032a1.028,1.028,0,0,0,1.471.106,1.078,1.078,0,0,0,.1-1.5l-45.123-53.032a1.029,1.029,0,0,0-1.471-.106A1.078,1.078,0,0,0,2528.882,54.54Z" transform="translate(-2528.627 -52.779)" fill="#fff"/>
    </g>
    <path id="Path_957" data-name="Path 957" d="M2809.329,1696.8l-11.786,37.843-11.531-1.782a1.028,1.028,0,0,0-.832.242l-33.964,29.467a1,1,0,0,0-.121.125l-26.349,31.891h2.728l25.16-30.452,33.535-29.1,11.881,1.836a1.041,1.041,0,0,0,1.125-.659l12.092-38.629a1.076,1.076,0,0,0,.074-.392,1.064,1.064,0,0,0-.658-.989A1.036,1.036,0,0,0,2809.329,1696.8Z" transform="translate(-758.377 -1154.562)" fill="#fff"/>
    <path id="Path_958" data-name="Path 958" d="M2687.548,14.405a1.078,1.078,0,0,0,.125,1.5,1.029,1.029,0,0,0,1.47-.128L2702.162.019h-2.728Z" transform="translate(-733.065)" fill="#fff"/>
    <g id="Group_310" data-name="Group 310" transform="translate(2004.589 589.612)">
      <path id="Path_959" data-name="Path 959" d="M2899.226,1845.489a1.053,1.053,0,0,0-1.043-1.064H2858.7a1.03,1.03,0,0,0-.62.208l-14.949,11.265a1.078,1.078,0,0,0-.22,1.486l18.459,25.587a1.03,1.03,0,0,0,1.53.167l11.439-10.3a1.08,1.08,0,0,0,.092-1.5,1.029,1.029,0,0,0-1.472-.094l-10.584,9.53-17.167-23.8,13.836-10.426h39.139A1.054,1.054,0,0,0,2899.226,1845.489Z" transform="translate(-2842.708 -1844.425)" fill="#fff"/>
    </g>
    <g id="Group_311" data-name="Group 311" transform="translate(2013.378 589.612)">
      <path id="Path_960" data-name="Path 960" d="M2903.509,1882.479a1.072,1.072,0,0,0-.256-.7l-31.589-36.99a1.029,1.029,0,0,0-1.471-.1,1.079,1.079,0,0,0-.1,1.5l31.589,36.99a1.029,1.029,0,0,0,1.471.1A1.071,1.071,0,0,0,2903.509,1882.479Z" transform="translate(-2869.834 -1844.425)" fill="#fff"/>
    </g>
    <g id="Group_312" data-name="Group 312" transform="translate(2001.795 471.623)">
      <path id="Path_961" data-name="Path 961" d="M2904.137,1550.019q0-.4-.013-.8c-.313-9.714-5.2-67.4-5.249-67.978a1.049,1.049,0,0,0-1.129-.968,1.06,1.06,0,0,0-.949,1.152c.049.581,4.931,58.207,5.242,67.865.259,8.072-3.934,13.539-6.71,17.154-.456.594-.887,1.156-1.259,1.675-3,4.2-3.151,29.3-2.756,33.713.437,4.923-1.762,7.235-3.779,7.719-1.83.439-17.935-1.083-27.656-2.146a1.03,1.03,0,0,0-.787.248l-24.642,21.412a1.078,1.078,0,0,0-.117,1.5,1.029,1.029,0,0,0,1.47.12l24.3-21.116c4.1.444,25.25,2.69,27.91,2.052,2.831-.679,5.942-3.7,5.379-9.983-.5-5.6.017-28.985,2.364-32.267.351-.49.771-1.037,1.216-1.617C2899.843,1564.012,2904.136,1558.418,2904.137,1550.019Z" transform="translate(-2834.084 -1480.265)" fill="#fff"/>
    </g>
    <g id="Group_313" data-name="Group 313" transform="translate(2037.369 580.191)">
      <path id="Path_962" data-name="Path 962" d="M2961.357,1865.1a1.071,1.071,0,0,0-.126-.5l-15.245-28.74,1.395-19.363a1.043,1.043,0,1,0-2.08-.156l-1.418,19.673a1.073,1.073,0,0,0,.123.584l15.391,29.014a1.032,1.032,0,0,0,1.414.429A1.068,1.068,0,0,0,2961.357,1865.1Z" transform="translate(-2943.88 -1815.348)" fill="#fff"/>
    </g>
    <g id="Group_314" data-name="Group 314" transform="translate(1967.684 559.035)">
      <path id="Path_963" data-name="Path 963" d="M2789.641,1770.365a1.072,1.072,0,0,0-.249-.689l-13.642-16.35a1.029,1.029,0,0,0-1.08-.334l-3.683,1.069-3.486-3.682a1.032,1.032,0,0,0-.75-.325h-10.929a1.031,1.031,0,0,0-.518.141l-7.69,4.49-7.454,1.837a1.035,1.035,0,0,0-.3.127l-5.085,3.187a1.06,1.06,0,0,0-.466.65l-1.012,4.159-4.058,2.98a1.077,1.077,0,0,0-.237,1.485,1.029,1.029,0,0,0,1.456.242l4.368-3.208a1.065,1.065,0,0,0,.4-.607l1-4.116,4.581-2.871,7.438-1.833a1.011,1.011,0,0,0,.273-.111l7.578-4.424h10.21l3.613,3.816a1.029,1.029,0,0,0,1.036.284l3.639-1.057,13.208,15.83a1.029,1.029,0,0,0,1.47.121A1.072,1.072,0,0,0,2789.641,1770.365Z" transform="translate(-2728.802 -1750.054)" fill="#fff"/>
    </g>
    <g id="Group_315" data-name="Group 315" transform="translate(1985.841 563.6)">
      <path id="Path_964" data-name="Path 964" d="M2811.684,1793.632a1.072,1.072,0,0,0-.263-.706l-24.756-28.426a1.028,1.028,0,0,0-1.472-.089,1.078,1.078,0,0,0-.087,1.5l24.755,28.425a1.029,1.029,0,0,0,1.472.089A1.071,1.071,0,0,0,2811.684,1793.632Z" transform="translate(-2784.842 -1764.143)" fill="#fff"/>
    </g>
    <g id="Group_316" data-name="Group 316" transform="translate(2016.824 607.106)">
      <path id="Path_965" data-name="Path 965" d="M2894.03,1914.112a1.071,1.071,0,0,0-.229-.664l-11.476-14.631a1.029,1.029,0,0,0-1.466-.166,1.078,1.078,0,0,0-.163,1.5l11.476,14.63a1.029,1.029,0,0,0,1.466.166A1.07,1.07,0,0,0,2894.03,1914.112Z" transform="translate(-2880.469 -1898.418)" fill="#fff"/>
    </g>
    <path id="Path_966" data-name="Path 966" d="M2243.181,1499.592a1.078,1.078,0,0,0,.163,1.5l17.37,14.159a1.03,1.03,0,0,0,1.466-.167,1.08,1.08,0,0,0-.163-1.5l-17.37-14.159A1.03,1.03,0,0,0,2243.181,1499.592Z" transform="translate(-432.685 -1019.588)" fill="#fff"/>
    <path id="Path_967" data-name="Path 967" d="M2248.042,1512.174l-4.949,8.69a1.075,1.075,0,0,0,.378,1.454,1.032,1.032,0,0,0,1.426-.385l4.949-8.69a1.077,1.077,0,0,0-.378-1.454A1.032,1.032,0,0,0,2248.042,1512.174Z" transform="translate(-432.685 -1028.003)" fill="#fff"/>
    <path id="Path_968" data-name="Path 968" d="M2135.507,1527.322l50.568,40.435a1.03,1.03,0,0,0,1.465-.181,1.079,1.079,0,0,0-.177-1.494l-50.568-40.435C2136.341,1525.285,2135.054,1526.96,2135.507,1527.322Z" transform="translate(-359.989 -1037.816)" fill="#fff"/>
    <path id="Path_969" data-name="Path 969" d="M2312.785,1540.331c-.029.04-2.962,4.081-5.824,8.1-1.683,2.363-3.013,4.256-3.953,5.627-.563.821-.993,1.466-1.278,1.916-.43.679-.967,1.525-.2,2.169a1.029,1.029,0,0,0,1.468-.147,1.07,1.07,0,0,0,.205-.415c.693-1.3,6.927-10.014,10.976-15.6l15.693-1.393a1.056,1.056,0,0,0,.952-1.058c0-.031,0-.062,0-.094a1.05,1.05,0,0,0-1.13-.968l-16.161,1.435A1.038,1.038,0,0,0,2312.785,1540.331Zm-9.619,16.6a1.073,1.073,0,0,0-.123-.231,1.062,1.062,0,0,0-.184-.2,1.069,1.069,0,0,1,.307.433Z" transform="translate(-472.022 -1046.334)" fill="#fff"/>
    <path id="Path_970" data-name="Path 970" d="M2306.623,1594.328a1.064,1.064,0,0,0-.184-.2A1.071,1.071,0,0,1,2306.623,1594.328Z" transform="translate(-475.602 -1083.99)" fill="#fff"/>
    <path id="Path_971" data-name="Path 971" d="M2330.6,1435.07v19.763a1.043,1.043,0,1,0,2.086,0V1435.07a1.043,1.043,0,1,0-2.086,0Z" transform="translate(-491.938 -975.307)" fill="#fff"/>
    <path id="Path_972" data-name="Path 972" d="M2120.509,1544.777l49.682,41.986a1.029,1.029,0,0,0,1.469-.141,1.08,1.08,0,0,0-.137-1.5l-49.682-41.986a1.029,1.029,0,0,0-1.469.14A1.079,1.079,0,0,0,2120.509,1544.777Z" transform="translate(-349.659 -1049.601)" fill="#fff"/>
    <path id="Path_973" data-name="Path 973" d="M2083.143,1584.063c.048.491.2,1.983,15.472,13.162a1.029,1.029,0,0,0,1.455-.244,1.077,1.077,0,0,0-.239-1.484c-6.5-4.755-13.548-10.306-14.578-11.72a1.07,1.07,0,0,0-.331-.712,1.029,1.029,0,0,0-1.475.055A1.223,1.223,0,0,0,2083.143,1584.063Z" transform="translate(-324.651 -1076.418)" fill="#fff"/>
    <path id="Path_974" data-name="Path 974" d="M2063,1606.437a1.077,1.077,0,0,0,.2,1.49l15.92,12.282a1.029,1.029,0,0,0,1.46-.207,1.078,1.078,0,0,0-.2-1.49l-15.919-12.282A1.029,1.029,0,0,0,2063,1606.437Z" transform="translate(-310.892 -1093.648)" fill="#fff"/>
    <path id="Path_975" data-name="Path 975" d="M2187.024,1690.311a1.076,1.076,0,0,0,.188,1.492l33.045,27.629a1.029,1.029,0,0,0,1.462-.192,1.078,1.078,0,0,0-.188-1.492l-33.045-27.629A1.029,1.029,0,0,0,2187.024,1690.311Z" transform="translate(-394.731 -1150.353)" fill="#fff"/>
    <path id="Path_976" data-name="Path 976" d="M2304.142,1631.25l-20.077,25.654a1.079,1.079,0,0,0,.165,1.495,1.029,1.029,0,0,0,1.466-.167l20.077-25.654a1.079,1.079,0,0,0-.165-1.495A1.03,1.03,0,0,0,2304.142,1631.25Z" transform="translate(-460.324 -1110.437)" fill="#fff"/>
    <path id="Path_977" data-name="Path 977" d="M2322.022,1650.245l-19.468,24.419a1.079,1.079,0,0,0,.151,1.5,1.029,1.029,0,0,0,1.467-.155l19.468-24.419a1.079,1.079,0,0,0-.151-1.5A1.029,1.029,0,0,0,2322.022,1650.245Z" transform="translate(-472.819 -1123.282)" fill="#fff"/>
    <g id="Group_317" data-name="Group 317" transform="translate(1862.486 413.606)">
      <path id="Path_978" data-name="Path 978" d="M2653.1,1349.027c0-3.83-.584-10.894-2.489-24.182-1.874-13.069-3.838-28.359-3.861-28.488l-2.052.379c4.289,24.152,7.485,52.908,6,55.483-2.179,1.6-17.233,2.156-26.253,2.487-4.117.151-7.673.282-9.742.466-2.124.188-8.746.9-17.131,1.791-20.411,2.181-51.257,5.475-60.327,5.931-8.731.438-33.722,10.256-35.985,11.757-6.188,4.1-23.582,14.83-29.951,18.079-1.648.84-3.339,1.8-5.129,2.806-5,2.822-10.164,5.739-14.43,6.136-8.837.821-22.459-3.456-26.177-7.248a1.03,1.03,0,0,0-1.58.126l-19.872,25.969,1.686,1.254,19.2-25.03c5.291,4.226,18.664,7.817,26.932,7.049,4.7-.437,10.066-3.465,15.252-6.394,1.77-1,3.442-1.944,5.051-2.764,6.427-3.278,23.934-14.073,30.155-18.2,1.86-1.232,26.518-10.992,34.951-11.416,9.128-.458,40.009-3.757,60.443-5.939,8.375-.895,14.989-1.6,17.094-1.788,2.015-.179,5.547-.309,9.636-.459,14.16-.521,25.178-1.071,27.528-2.989C2652.482,1353.49,2653.1,1352.982,2653.1,1349.027Z" transform="translate(-2404.122 -1296.357)" fill="#fff"/>
    </g>
    <g id="Group_318" data-name="Group 318" transform="translate(1901.094 472.965)">
      <path id="Path_979" data-name="Path 979" d="M2579.964,1544.219a1.057,1.057,0,0,0-.917-1.055l-20.941-2.606-32.871-59.98a1.032,1.032,0,0,0-1.419-.409,1.074,1.074,0,0,0-.4,1.448l33.129,60.452a1.042,1.042,0,0,0,.784.537l21.467,2.672a1.047,1.047,0,0,0,1.162-.927A1.121,1.121,0,0,0,2579.964,1544.219Z" transform="translate(-2523.281 -1480.033)" fill="#fff"/>
    </g>
    <g id="Group_319" data-name="Group 319" transform="translate(1904.027 396.243)">
      <path id="Path_980" data-name="Path 980" d="M2587,1241.342a1.06,1.06,0,0,0-.827-1.04,1.043,1.043,0,0,0-1.237.82l-6.867,35.819-7.064,7.832a1.075,1.075,0,0,0-.276.72v13.246l-20.865,13.1-7.746-2.57a1.026,1.026,0,0,0-.879.112c-15.325,9.866-8.033,8.747.7,2.066l7.739,2.568a1.024,1.024,0,0,0,.869-.106l21.773-13.666a1.069,1.069,0,0,0,.5-.906v-13.425l6.982-7.741a1.069,1.069,0,0,0,.253-.5l6.926-36.1A1.1,1.1,0,0,0,2587,1241.342Z" transform="translate(-2532.334 -1240.279)" fill="#fff"/>
    </g>
    <g id="Group_320" data-name="Group 320" transform="translate(1876.637 436.61)">
      <path id="Path_981" data-name="Path 981" d="M2502.344,1441.172a1.069,1.069,0,0,0-.142-.534l-23.465-41.112a1.088,1.088,0,0,0-.131-.182l-28.995-32.386a1.029,1.029,0,0,0-1.474-.068,1.079,1.079,0,0,0-.067,1.5l28.92,32.3,23.409,41.014a1.032,1.032,0,0,0,1.426.384A1.067,1.067,0,0,0,2502.344,1441.172Z" transform="translate(-2447.798 -1366.612)" fill="#fff"/>
    </g>
    <g id="Group_321" data-name="Group 321" transform="translate(1910.399 465.884)">
      <path id="Path_982" data-name="Path 982" d="M2585.247,1495.193a1.08,1.08,0,0,0-.149-.547l-20.905-35.617a1.031,1.031,0,0,0-1.43-.366,1.075,1.075,0,0,0-.359,1.459l20.363,34.693-3.751,2.227-25.1-39.449a1.031,1.031,0,0,0-1.442-.313,1.077,1.077,0,0,0-.307,1.472l25.638,40.3a1.03,1.03,0,0,0,1.4.34l5.523-3.279a1.064,1.064,0,0,0,.486-.654A1.1,1.1,0,0,0,2585.247,1495.193Z" transform="translate(-2552.001 -1457.109)" fill="#fff"/>
    </g>
    <g id="Group_322" data-name="Group 322" transform="translate(1925.388 440.462)">
      <path id="Path_983" data-name="Path 983" d="M2781.676,1378.51a1.073,1.073,0,0,0-.015-.18,1.046,1.046,0,0,0-1.2-.87l-109.655,19.02a1.052,1.052,0,0,0-.107.025l-48.738,13.976-4.225-2.008a1.024,1.024,0,0,0-.857-.011l-9.583,4.261H2599.3a1.064,1.064,0,0,0,0,2.128h8.2a1.021,1.021,0,0,0,.417-.089l9.351-4.158,4.149,1.972a1.027,1.027,0,0,0,.723.06l49.057-14.068,109.6-19.011A1.059,1.059,0,0,0,2781.676,1378.51Z" transform="translate(-2598.262 -1377.444)" fill="#fff"/>
    </g>
    <g id="Group_323" data-name="Group 323" transform="translate(2069.762 446.876)">
      <path id="Path_984" data-name="Path 984" d="M3050.219,1424.287a1.124,1.124,0,0,0-.014-.177l-4.275-26a1.046,1.046,0,0,0-1.2-.873,1.062,1.062,0,0,0-.856,1.225l4.276,26a1.045,1.045,0,0,0,1.2.873A1.058,1.058,0,0,0,3050.219,1424.287Z" transform="translate(-3043.858 -1397.226)" fill="#fff"/>
    </g>
    <g id="Group_324" data-name="Group 324" transform="translate(2031.806 453.4)">
      <path id="Path_985" data-name="Path 985" d="M2932.767,1441.987a1.089,1.089,0,0,0-.015-.183l-3.973-23.376a1.045,1.045,0,0,0-1.206-.866,1.064,1.064,0,0,0-.849,1.23l3.974,23.376a1.045,1.045,0,0,0,1.206.866A1.058,1.058,0,0,0,2932.767,1441.987Z" transform="translate(-2926.708 -1417.546)" fill="#fff"/>
    </g>
    <g id="Group_325" data-name="Group 325" transform="translate(2005.02 458.005)">
      <path id="Path_986" data-name="Path 986" d="M2850.461,1454.356a1.09,1.09,0,0,0-.022-.216l-4.338-21.405a1.043,1.043,0,0,0-1.232-.826,1.063,1.063,0,0,0-.81,1.257l4.338,21.405a1.043,1.043,0,0,0,1.232.826A1.059,1.059,0,0,0,2850.461,1454.356Z" transform="translate(-2844.037 -1431.886)" fill="#fff"/>
    </g>
    <g id="Group_326" data-name="Group 326" transform="translate(1981.126 465.014)">
      <path id="Path_987" data-name="Path 987" d="M2780.965,1470.14a11.739,11.739,0,0,0-.721-1.618l-8-14.363a1.032,1.032,0,0,0-1.422-.4,1.076,1.076,0,0,0-.391,1.451l8.587,15.457a1.032,1.032,0,0,0,1.422.4A1.068,1.068,0,0,0,2780.965,1470.14Z" transform="translate(-2770.292 -1453.621)" fill="#fff"/>
    </g>
    <g id="Group_327" data-name="Group 327" transform="translate(1947.949 473.297)">
      <path id="Path_988" data-name="Path 988" d="M2681.182,1499.423a1.076,1.076,0,0,0-.153-.553l-11.2-18.746a1.032,1.032,0,0,0-1.433-.355,1.076,1.076,0,0,0-.348,1.462l11.2,18.746a1.032,1.032,0,0,0,1.434.355A1.069,1.069,0,0,0,2681.182,1499.423Z" transform="translate(-2667.895 -1479.614)" fill="#fff"/>
    </g>
    <g id="Group_328" data-name="Group 328" transform="translate(2007.189 463.096)">
      <path id="Path_989" data-name="Path 989" d="M2917.176,1448.41c0-.031,0-.061,0-.091a1.049,1.049,0,0,0-1.127-.97c-18.5,1.6-61.437,5.923-63.935,5.747a1.024,1.024,0,0,0-.546-.034,1.063,1.063,0,0,0-.811,1.257c.2,1,.9.966,3.226.866,1.3-.055,3.2-.168,5.646-.333,4.112-.278,9.835-.712,17.011-1.288,12.212-.981,39.462-4.084,39.586-4.095A1.055,1.055,0,0,0,2917.176,1448.41Z" transform="translate(-2850.731 -1447.345)" fill="#fff"/>
    </g>
    <g id="Group_329" data-name="Group 329" transform="translate(2070.845 448.791)">
      <path id="Path_990" data-name="Path 990" d="M3086.281,1403.673a1.077,1.077,0,0,0-.008-.137,1.047,1.047,0,0,0-1.167-.92l-37,4.84a1.06,1.06,0,0,0-.9,1.19,1.047,1.047,0,0,0,1.167.92l37-4.84A1.057,1.057,0,0,0,3086.281,1403.673Z" transform="translate(-3047.2 -1402.608)" fill="#fff"/>
    </g>
    <g id="Group_330" data-name="Group 330" transform="translate(2024.494 421.727)">
      <path id="Path_991" data-name="Path 991" d="M2964.993,1319.33a1.06,1.06,0,0,0-.03-.25,1.042,1.042,0,0,0-1.258-.785l-58.766,14.026a1.065,1.065,0,0,0-.769,1.284,1.042,1.042,0,0,0,1.258.785l58.766-14.025A1.061,1.061,0,0,0,2964.993,1319.33Z" transform="translate(-2904.141 -1318.265)" fill="#fff"/>
    </g>
    <g id="Group_331" data-name="Group 331" transform="translate(2026.426 425.999)">
      <path id="Path_992" data-name="Path 992" d="M2953.462,1343.148a1.082,1.082,0,0,0-.048-.317l-3.161-10.327a1.039,1.039,0,0,0-1.307-.7,1.068,1.068,0,0,0-.684,1.333l2.819,9.208-40.149,8.5a1.063,1.063,0,0,0-.807,1.259,1.043,1.043,0,0,0,1.234.823l41.273-8.742a1.041,1.041,0,0,0,.685-.5A1.076,1.076,0,0,0,2953.462,1343.148Z" transform="translate(-2910.103 -1331.758)" fill="#fff"/>
    </g>
    <g id="Group_332" data-name="Group 332" transform="translate(2019.555 414.405)">
      <path id="Path_993" data-name="Path 993" d="M2899.69,1337.241c0-.752-.551-3-2.827-12.291-1.321-5.394-2.652-10.772-2.872-11.663l-3.007-16.149a1.043,1.043,0,1,0-2.086,0l3.007,16.281a1.074,1.074,0,0,0,.032.26c2.225,8.988,5.585,22.672,5.716,23.535l1.025-.162.008.051.874.581A.675.675,0,0,0,2899.69,1337.241Z" transform="translate(-2888.898 -1296.074)" fill="#fff"/>
    </g>
    <g id="Group_333" data-name="Group 333" transform="translate(1879.78 417.655)">
      <path id="Path_994" data-name="Path 994" d="M2525.134,1326.556a1.075,1.075,0,0,0-.17-.581c-3.3-5.15-14.476-21.816-19.7-20.061-4.318,1.45-28.7,12.515-32.146,16.029-2.445,2.494-11.591,5.982-14.909,7.115a1.071,1.071,0,0,0-.658,1.347,1.038,1.038,0,0,0,1.32.671c.506-.173,12.432-4.271,15.723-7.629,2.931-2.99,26.544-13.908,31.323-15.513,2.537-.852,10.955,9.305,17.3,19.2a1.031,1.031,0,0,0,1.444.309A1.068,1.068,0,0,0,2525.134,1326.556Z" transform="translate(-2457.498 -1305.785)" fill="#fff"/>
    </g>
    <g id="Group_334" data-name="Group 334" transform="translate(1912.451 440.273)">
      <path id="Path_995" data-name="Path 995" d="M2590.394,1377.609a1.074,1.074,0,0,0-.232-.669,1.029,1.029,0,0,0-1.467-.157l-29.977,24.783a1.078,1.078,0,0,0-.154,1.5,1.029,1.029,0,0,0,1.467.157l29.977-24.783A1.069,1.069,0,0,0,2590.394,1377.609Z" transform="translate(-2558.332 -1376.545)" fill="#fff"/>
    </g>
    <g id="Group_335" data-name="Group 335" transform="translate(1896.436 429.85)">
      <path id="Path_996" data-name="Path 996" d="M2554.835,1345.151a1.078,1.078,0,0,0-.171-.584,1.03,1.03,0,0,0-1.444-.3l-43.845,29.412a1.077,1.077,0,0,0-.3,1.474,1.031,1.031,0,0,0,1.445.3l43.844-29.413A1.069,1.069,0,0,0,2554.835,1345.151Z" transform="translate(-2508.905 -1344.088)" fill="#fff"/>
    </g>
    <g id="Group_336" data-name="Group 336" transform="translate(1899.127 421.559)">
      <path id="Path_997" data-name="Path 997" d="M2553.463,1318.947a1.075,1.075,0,0,0-.194-.617,1.03,1.03,0,0,0-1.455-.248l-25.706,18.7-7.03-9.273a1.03,1.03,0,0,0-1.463-.191,1.077,1.077,0,0,0-.187,1.492l7.644,10.083a1.029,1.029,0,0,0,1.431.216l26.523-19.3A1.072,1.072,0,0,0,2553.463,1318.947Z" transform="translate(-2517.21 -1317.883)" fill="#fff"/>
    </g>
    <g id="Group_337" data-name="Group 337" transform="translate(1892.597 484.3)">
      <path id="Path_998" data-name="Path 998" d="M2519.527,1549.325a1.08,1.08,0,0,0-.15-.55l-20.385-33.77a1.031,1.031,0,0,0-1.432-.36,1.076,1.076,0,0,0-.353,1.461l20.385,33.77a1.031,1.031,0,0,0,1.432.36A1.069,1.069,0,0,0,2519.527,1549.325Z" transform="translate(-2497.056 -1514.492)" fill="#fff"/>
    </g>
    <g id="Group_338" data-name="Group 338" transform="translate(1967.684 488.006)">
      <path id="Path_999" data-name="Path 999" d="M2733.872,1564.662c0-.029,0-.058,0-.088l-2.982-37.393a1.05,1.05,0,0,0-1.125-.974,1.061,1.061,0,0,0-.955,1.147l2.982,37.393a1.042,1.042,0,0,0,2.083-.085Z" transform="translate(-2728.803 -1526.204)" fill="#fff"/>
    </g>
    <g id="Group_339" data-name="Group 339" transform="translate(1989.806 481.618)">
      <path id="Path_1000" data-name="Path 1000" d="M2802.369,1548.3a1.031,1.031,0,0,0,0-.106l-3.2-40.893a1.043,1.043,0,1,0-2.076.209l3.2,40.893a1.042,1.042,0,0,0,2.081-.1Z" transform="translate(-2797.079 -1506.341)" fill="#fff"/>
    </g>
    <g id="Group_340" data-name="Group 340" transform="translate(2005.02 477.334)">
      <path id="Path_1001" data-name="Path 1001" d="M2867.54,1508.492c0-.029,0-.057,0-.085-.4-5-1.009-13.126-1.013-14.157a1.081,1.081,0,0,0,.007-.267c-.072-.744-.512-.923-1.14-.927l0-.027a1.4,1.4,0,0,0-.179.03c-.215.009-.448.031-.693.055l-19.536,1.918a1.06,1.06,0,0,0-.939,1.149l3.49,41.491a1.043,1.043,0,1,0,2.078-.182l-3.4-40.442,18.273-1.794c.018.33.042.721.071,1.159.088,1.354.218,3.158.353,4.961.231,3.112.476,6.223.538,7.011l-8.2,26.938a1.067,1.067,0,0,0,.72,1.313,1.041,1.041,0,0,0,1.287-.735l8.253-27.122A1.091,1.091,0,0,0,2867.54,1508.492Z" transform="translate(-2844.039 -1493.029)" fill="#fff"/>
    </g>
    <g id="Group_341" data-name="Group 341" transform="translate(2043.07 473.908)">
      <path id="Path_1002" data-name="Path 1002" d="M2971.395,1556.129a1.1,1.1,0,0,0-.007-.126l-7.833-67.748a1.044,1.044,0,1,0-2.072.25l7.834,67.747a1.042,1.042,0,0,0,2.079-.123Z" transform="translate(-2961.475 -1487.316)" fill="#fff"/>
    </g>
    <g id="Group_342" data-name="Group 342" transform="translate(2026.437 488.348)">
      <path id="Path_1003" data-name="Path 1003" d="M2950.224,1527.27c0-.034,0-.067,0-.1a1.049,1.049,0,0,0-1.136-.959l-38,3.651a1.064,1.064,0,0,0,.2,2.118l38-3.651A1.056,1.056,0,0,0,2950.224,1527.27Z" transform="translate(-2910.137 -1526.204)" fill="#fff"/>
    </g>
    <g id="Group_343" data-name="Group 343" transform="translate(2106.715 468.434)">
      <path id="Path_1004" data-name="Path 1004" d="M3167.994,1558.871c0-.033,0-.067,0-.1l-8-87.383a1.043,1.043,0,1,0-2.077.2l8,87.383a1.042,1.042,0,0,0,2.081-.1Z" transform="translate(-3157.907 -1470.423)" fill="#fff"/>
    </g>
    <g id="Group_344" data-name="Group 344" transform="translate(2069.439 529.094)">
      <path id="Path_1005" data-name="Path 1005" d="M3086.84,1659.763c-16.2,1.712-40.692,4.365-42.567,4.745a1.024,1.024,0,0,1-.3.066,1.05,1.05,0,0,1-1.11-.991c-.06-.993.9-1.151,1.362-1.223.319-.05.788-.114,1.384-.191,1.173-.151,2.849-.351,4.863-.584,3.553-.411,8.509-.963,14.729-1.64,10.711-1.167,21.425-2.3,21.425-2.3a1.048,1.048,0,0,1,1.145.948,1.068,1.068,0,0,1,.006.111A1.056,1.056,0,0,1,3086.84,1659.763Zm-41.951,4.1a1.082,1.082,0,0,0,.055-.42A1.069,1.069,0,0,1,3044.889,1663.862Z" transform="translate(-3042.86 -1657.641)" fill="#fff"/>
    </g>
    <g id="Group_345" data-name="Group 345" transform="translate(2066.194 490.151)">
      <path id="Path_1006" data-name="Path 1006" d="M3077.273,1532.9c0-.03,0-.059,0-.089a1.049,1.049,0,0,0-1.125-.972l-42.343,3.582a1.064,1.064,0,0,0,.173,2.12l42.343-3.582A1.056,1.056,0,0,0,3077.273,1532.9Z" transform="translate(-3032.844 -1531.838)" fill="#fff"/>
    </g>
    <path id="Path_1007" data-name="Path 1007" d="M3134.268,1701.575,3131.6,1690.7a1.042,1.042,0,0,0-1.265-.774,1.065,1.065,0,0,0-.759,1.291l2.806,11.444a1.056,1.056,0,0,0,.69.754l21.164,7v-2.237Z" transform="translate(-1032.021 -1150.352)" fill="#fff"/>
    <path id="Path_1008" data-name="Path 1008" d="M3176.021,1623.7a1.064,1.064,0,0,0,.139,2.123l8.837-.6v-2.132Z" transform="translate(-1062.779 -1105.195)" fill="#fff"/>
    <path id="Path_1009" data-name="Path 1009" d="M1607.787,1665.689h7.573a1.033,1.033,0,0,0,.775-.353,1.075,1.075,0,0,0,.267-.711c0-.038,0-.075-.006-.113l-4.418-42.149a1.049,1.049,0,0,0-1.106-.948l-7.987.543v2.132l7.125-.484,4.188,39.956h-6.248l-5.065-1.675v2.236l4.579,1.515A1.027,1.027,0,0,0,1607.787,1665.689Z" transform="translate(-0.003 -1104.057)" fill="#fff"/>
    <g id="Group_346" data-name="Group 346" transform="translate(2089.343 510.434)">
      <path id="Path_1010" data-name="Path 1010" d="M3129.3,1629.111c0-.018,0-.037,0-.055a1.051,1.051,0,0,0-1.095-1.008l-20.375,1.06-1.456-28.051a1.043,1.043,0,1,0-2.083.113l1.511,29.111a1.051,1.051,0,0,0,1.095,1.006l21.415-1.114A1.055,1.055,0,0,0,3129.3,1629.111Z" transform="translate(-3104.292 -1600.05)" fill="#fff"/>
    </g>
    <g id="Group_347" data-name="Group 347" transform="translate(2106.715 538.719)">
      <path id="Path_1011" data-name="Path 1011" d="M3159.995,1702.795v-14.381a1.043,1.043,0,1,0-2.086,0v14.381a1.043,1.043,0,1,0,2.086,0Z" transform="translate(-3157.909 -1687.35)" fill="#fff"/>
    </g>
    <path id="Path_1012" data-name="Path 1012" d="M1645.8,1302.148c.143,1.336,14.253,133.627,14.564,137.431.324,3.957.225,5.926-1.205,7.141-.919.782-3.048.428-4.366.026l-5.874-53.525a1.048,1.048,0,0,0-1.152-.939,1.06,1.06,0,0,0-.921,1.176l5.948,54.2a1.059,1.059,0,0,0,.662.875c.478.188,4.74,1.777,7.038-.176,1.665-1.415,2.106-3.418,2.106-5.865,0-.963-.068-1.995-.157-3.087-.313-3.832-13.987-132.03-14.569-137.485a1.048,1.048,0,0,0-1.15-.943A1.061,1.061,0,0,0,1645.8,1302.148Z" transform="translate(-29.011 -887.439)" fill="#fff"/>
    <path id="Path_1013" data-name="Path 1013" d="M3161.259,1380.886c-.566.11-.176,2.2.39,2.09l13.84-2.687v-2.166Z" transform="translate(-1053.271 -937.148)" fill="#fff"/>
    <path id="Path_1014" data-name="Path 1014" d="M1619.921,1369.663a1.059,1.059,0,0,0-.019-.2,1.045,1.045,0,0,0-1.219-.846l-15.8,3.067v2.166l16.187-3.143A1.059,1.059,0,0,0,1619.921,1369.663Z" transform="translate(-0.003 -930.674)" fill="#fff"/>
    <path id="Path_1015" data-name="Path 1015" d="M1673.245,1287.363l15.458,120.36a1.042,1.042,0,0,0,2.077-.135,1.1,1.1,0,0,0-.009-.138l-15.458-120.36a1.043,1.043,0,1,0-2.069.273Z" transform="translate(-47.559 -875.773)" fill="#fff"/>
    <path id="Path_1016" data-name="Path 1016" d="M1706.386,1540.271a1.051,1.051,0,0,0,1.091,1.013l37.323-1.791a1.055,1.055,0,0,0,.994-1.062c0-.017,0-.034,0-.051a1.051,1.051,0,0,0-1.091-1.012l-37.323,1.791A1.063,1.063,0,0,0,1706.386,1540.271Z" transform="translate(-69.968 -1045.429)" fill="#fff"/>
    <path id="Path_1017" data-name="Path 1017" d="M1835.136,1405.3l-33.037,51.8-13.11,2.61a1.061,1.061,0,0,0-.824,1.248,1.044,1.044,0,0,0,1.223.84l13.568-2.7a1.046,1.046,0,0,0,.7-.5l33.276-52.208a1.077,1.077,0,0,0-.363-1.458A1.032,1.032,0,0,0,1835.136,1405.3Z" transform="translate(-125.237 -955.779)" fill="#fff"/>
    <path id="Path_1018" data-name="Path 1018" d="M1798.409,1339.97a133.9,133.9,0,0,0-2.5,17.124c-.259,5.781,3.606,13.364,5.1,16.062l-4.535,2.352a1.065,1.065,0,0,0-.569.89,1.079,1.079,0,0,0,.47.948l8.136,5.441-1.914,5.186a1.1,1.1,0,0,0-.051.561l4.418,25.327a1.044,1.044,0,0,0,1.209.861,1.067,1.067,0,0,0,.844-1.233l-4.367-25.04,2.107-5.709a1.076,1.076,0,0,0-.4-1.264l-7.331-4.9,3.918-2.032a1.06,1.06,0,0,0,.531-.66,1.084,1.084,0,0,0-.115-.846c-.056-.094-5.661-9.478-5.368-15.84a134.5,134.5,0,0,1,2.451-16.776,1.064,1.064,0,0,0-.8-1.264A1.043,1.043,0,0,0,1798.409,1339.97Z" transform="translate(-130.479 -911.299)" fill="#fff"/>
    <path id="Path_1019" data-name="Path 1019" d="M1685.062,1326.491a1.06,1.06,0,0,0-.768,1.284,1.042,1.042,0,0,0,1.259.784l79.463-20.2a1.07,1.07,0,0,0,.768-1.284,1.042,1.042,0,0,0-1.259-.783Z" transform="translate(-55.013 -888.429)" fill="#fff"/>
    <path id="Path_1020" data-name="Path 1020" d="M1691.235,1399.464a1.054,1.054,0,0,0,1.043,1.064h33.911a1.064,1.064,0,0,0,0-2.127h-33.911A1.053,1.053,0,0,0,1691.235,1399.464Z" transform="translate(-59.726 -950.914)" fill="#fff"/>
    <path id="Path_1021" data-name="Path 1021" d="M1743.582,1399.635l9.079,56.606a1.045,1.045,0,0,0,1.2.878,1.058,1.058,0,0,0,.874-1.049,1.109,1.109,0,0,0-.014-.173l-9.079-56.606a1.045,1.045,0,0,0-1.2-.878A1.063,1.063,0,0,0,1743.582,1399.635Z" transform="translate(-95.104 -951.452)" fill="#fff"/>
    <path id="Path_1022" data-name="Path 1022" d="M1638.386,1283.25a1.045,1.045,0,0,1,1.1.891l7.167,23.7a1.158,1.158,0,0,1,.049.327,1.058,1.058,0,0,1-.722,1.011,1.035,1.035,0,0,1-1.312-.687l-7.089-23.049-34.7,2.634v-2.135Z" transform="translate(0 -872.806)" fill="#fff"/>
    <path id="Path_1023" data-name="Path 1023" d="M2680.307,919.2l4.838-.962,132.38-211.932,33.029-49.038V650.7l-36.089,53.583Z" transform="translate(-728.336 -444.302)" fill="#fff"/>
    <path id="Path_1024" data-name="Path 1024" d="M1782.369,179.919l-.066.024-134,47.787-24.677,26.944-20.743,30.8v6.574L1626.56,256.9l23.8-25.956,133.085-47.46,69.052-18.74,69.045-51.316-2.151-3.009L1850.9,161.322Z" transform="translate(-0.003 -74.629)" fill="#fff"/>
    <path id="Path_1025" data-name="Path 1025" d="M2913.111,1044.14l1.7,3.3c.365-.2,36.786-19.652,57.206-25.963a85.41,85.41,0,0,1,35.914-3.179v-3.733a89.352,89.352,0,0,0-36.972,3.349C2950.2,1024.325,2914.616,1043.334,2913.111,1044.14Z" transform="translate(-885.711 -689.667)" fill="#fff"/>
    <path id="Path_1026" data-name="Path 1026" d="M1614.926,1022.755c1.973.86,7.594,3.253,15.374,6.564,25.79,10.977,79.457,33.818,86.746,37.783l1.019.553c8.806,4.774,13.658,7.4,18.3,22.19,5.027,16.025,18.97,44.835,19.028,44.958l3.447-.836c-.056-.122-14.049-29.48-19-45.256-5.091-16.229-11.046-19.457-20.06-24.343l-1.014-.55c-7.442-4.048-59.234-26.091-87.058-37.934-7.771-3.308-13.386-5.7-15.345-6.552a50.909,50.909,0,0,0-13.474-3.418v3.733A46.774,46.774,0,0,1,1614.926,1022.755Z" transform="translate(-0.003 -691.718)" fill="#fff"/>
    <path id="Path_1027" data-name="Path 1027" d="M1754.959,614.288l-24.677,69.194,3.467,1.167,24.663-69.151,34.718-92.157.019-.065L1840.8,362.822l-3.493-1.079-47.635,160.389Z" transform="translate(-86.122 -247.408)" fill="#fff"/>
    <path id="Path_1028" data-name="Path 1028" d="M1738.207,193.574l9.646,9.328.424.126,155.591,46.261c1.523,1.089,9.97,7.224,13.222,11.646,4.3,5.842,12.971,5.287,23.015,4.645l.647-.041c10.148-.647,75.019,15.633,75.954,15.394l-.3-3.2c-.226.058-66.07-16.534-75.885-15.908l-.647.041c-9.359.6-16.752,1.072-19.867-3.163-3.921-5.331-13.888-12.351-14.31-12.647l-.242-.17-.282-.084L1749.723,199.58l-6.313-6.106,22.654-23.621L1924.628,60.527l-2.044-3.085L1763.713,166.98Z" transform="translate(-91.479 -38.818)" fill="#fff"/>
    <path id="Path_1029" data-name="Path 1029" d="M2927.386,1956.974c-1.772,1.427-6.3,5.333-12.5,10.733h5.624c4.479-3.89,7.719-6.671,9.135-7.811,4.652-3.745,6.718-4.165,7.633-3.858,1.281.43,2.159,3.209,2.708,5.262a60.158,60.158,0,0,0,2.277,6.407h3.959a66.53,66.53,0,0,1-2.714-7.387c-.932-3.487-2.194-6.847-5.087-7.818C2935.711,1951.591,2932.41,1952.928,2927.386,1956.974Z" transform="translate(-886.913 -1327.688)" fill="#fff"/>
    <path id="Path_1030" data-name="Path 1030" d="M3009.482,22.43c1.306,2.783,2.54,5.411,3.507,7.528,4.673,10.215,45.568,57.64,53.258,66.061V90.506c-12.472-14.056-46.036-53.566-49.95-62.123-.976-2.133-2.213-4.77-3.523-7.561-3.042-6.481-6.836-14.569-9.433-20.8h-3.958C3001.974,6.43,3006.029,15.072,3009.482,22.43Z" transform="translate(-944.031)" fill="#fff"/>
    <path id="Path_1031" data-name="Path 1031" d="M2463.683,75.158c-8.7,6.209-16.717,8.806-31.788,10.293-14.5,1.431-55.783,2.586-56.049,2.61l.325,3.709c.265-.024,41.564-1.18,56.075-2.612,15.786-1.558,24.247-4.321,33.53-10.949,5.827-4.161,38.308-32.63,64.406-55.5,10.086-8.841,19.353-16.963,25.94-22.684H2550.5c-6.242,5.439-14.176,12.393-22.695,19.86C2501.766,42.7,2469.362,71.1,2463.683,75.158Z" transform="translate(-522.521)" fill="#fff"/>
    <path id="Path_1032" data-name="Path 1032" d="M1602.959,284.891c9.2,10.049,17.844,10.89,25.913,10.89a234.236,234.236,0,0,0,44.9-4.73c14.806-3.014,22,15.954,26.3,27.286.99,2.609,1.845,4.862,2.628,6.407l3.242-1.711c-.692-1.365-1.514-3.531-2.465-6.039-4.4-11.61-12.6-33.222-30.421-29.594a230.47,230.47,0,0,1-44.181,4.658c-7.568,0-15.041-.743-23.245-9.707-.732-.8-1.658-1.831-2.742-3.053v5.513Z" transform="translate(-0.003 -188.792)" fill="#fff"/>
    <path id="Path_1033" data-name="Path 1033" d="M2665.18,1720.9l-2.838,2.342c.659.832,35.29,44.5,69.651,88.087h4.683C2701.709,1766.967,2665.851,1721.749,2665.18,1720.9Z" transform="translate(-716.192 -1171.312)" fill="#fff"/>
    <path id="Path_1034" data-name="Path 1034" d="M2970.092,104.077c2.392.608,5.1,1.3,8.252,2.211,1.887.548,3.671,1.028,5.384,1.45v-3.831c-1.4-.358-2.856-.756-4.385-1.2-3.206-.931-5.948-1.628-8.368-2.243-10.877-2.766-14.541-3.7-23.468-16.344-5.243-7.428-35.04-45.439-65.513-84.1h-4.683c31.068,39.407,61.916,78.742,67.233,86.277C2954.253,100.049,2958.891,101.228,2970.092,104.077Z" transform="translate(-861.511)" fill="#fff"/>
    <path id="Path_1035" data-name="Path 1035" d="M1602.886,318.1v3.831c14.636,3.6,23.779,2.7,41.587-1.425l-.808-3.631C1625.877,321,1617.409,321.814,1602.886,318.1Z" transform="translate(-0.003 -214.196)" fill="#fff"/>
    <g id="Group_348" data-name="Group 348" transform="translate(1858.317 95.899)">
      <path id="Path_1036" data-name="Path 1036" d="M2452.249,446.193c-19.7,15.554-48.2,20.641-61,23.014l.653,3.663c13.191-2.446,42.175-7.623,62.577-23.734,19.564-15.449,95.926-75.678,95.926-75.678l.048-.04,82.214-69.555-2.33-2.866-82.19,69.534C2546.6,371.758,2471.609,430.9,2452.249,446.193Z" transform="translate(-2391.253 -300.998)" fill="#fff"/>
    </g>
    <g id="Group_349" data-name="Group 349" transform="translate(1908.549 85.746)">
      <path id="Path_1037" data-name="Path 1037" d="M2549.044,269.257c4.785,2.438,9.731,4.96,5.513,17.106-5.624,16.186-2.451,28.652,4.489,43.519,2.893,6.194,9.184,17.587,15.846,29.649,8.184,14.817,16.645,30.137,20.749,39.208,6.317,13.962,17.891,21.266,26.34,26.6,2.009,1.268,3.745,2.364,5.183,3.407,7.534,5.463,74.285,47.561,77.123,49.35l1.919-3.167c-.694-.438-69.488-43.824-76.927-49.218-1.533-1.112-3.4-2.29-5.376-3.538-8.057-5.085-19.09-12.049-24.947-24.994-4.166-9.207-12.664-24.594-20.882-39.475-6.63-12-12.893-23.343-15.73-29.422-6.71-14.371-9.571-25.634-4.345-40.675,5.3-15.248-2.3-19.118-7.322-21.68a24.9,24.9,0,0,1-2.385-1.319l-2,3.115A27.4,27.4,0,0,0,2549.044,269.257Z" transform="translate(-2546.291 -264.607)" fill="#fff"/>
    </g>
    <path id="Path_1038" data-name="Path 1038" d="M2503.512,1602.99c-10.164,1.3-17.575,6.336-22.657,15.407-4.418,7.885-10.455,17.08-21.738,25.491-9.942,7.41-57.226,57.134-75.977,76.916h5.213c21.346-22.554,63.936-67.215,72.918-73.91,11.838-8.824,18.145-18.423,22.754-26.65,4.473-7.984,11-12.42,19.941-13.56,7.378-.941,91.1-10.124,145.7-15.957v-3.741C2595,1592.825,2510.91,1602.046,2503.512,1602.99Z" transform="translate(-527.452 -1080.786)" fill="#fff"/>
    <path id="Path_1039" data-name="Path 1039" d="M2359.562,8.07l.594,4.934c.132-.134,4.955-5.268,12.258-12.984H2367.2C2362.8,4.662,2359.967,7.66,2359.562,8.07Z" transform="translate(-511.513)" fill="#fff"/>
    <path id="Path_1040" data-name="Path 1040" d="M1649.227,1571.96c-2.707.158-21.481,2.113-46.341,4.768v3.741c24.963-2.667,43.839-4.633,46.55-4.792,7.925-.463,12.718.008,16.925,3.87,2.809,2.579,52.771,42.357,96.851,77.452,31.446,25.036,58.6,46.659,62.73,50.066a21.7,21.7,0,0,1,3.52,3.48h4.24c-.846-1.895-2.507-3.932-5.464-6.374-4.152-3.429-31.322-25.061-62.781-50.108-41.853-33.322-93.94-74.793-96.655-77.284C1663.668,1572.066,1657.961,1571.449,1649.227,1571.96Z" transform="translate(-0.003 -1070.527)" fill="#fff"/>
    <path id="Path_1041" data-name="Path 1041" d="M2302.928,6.743a19.3,19.3,0,0,0-.731,7.4c.943,8.173,13.637,40.528,14.728,43.3,1.2,5.527,20.28,92.908,24.036,102.489.679,1.731,1.157,3.255,1.578,4.6,2.117,6.751,36.044,89.8,36.044,89.8l3.647-3.272s-34.408-81.9-36.214-87.659c-.439-1.4-.939-2.994-1.665-4.848-3.689-9.406-23.693-101.138-23.895-102.063l-.089-.292c-.136-.345-13.638-34.615-14.546-42.483a15.724,15.724,0,0,1,.641-6.033c.687-2.726,1.059-5.054-.1-7.652h-4.24C2303.994,2.5,2303.564,4.221,2302.928,6.743Z" transform="translate(-472.662)" fill="#fff"/>
    <path id="Path_1042" data-name="Path 1042" d="M2492.638,1887.254l-1.992,3.12,32.1,21.269,12.63,12.141h5.323l-15.687-15.079Z" transform="translate(-600.126 -1283.766)" fill="#fff"/>
    <path id="Path_1043" data-name="Path 1043" d="M2674.359,43.921l2.5-2.71L2634.01.019h-5.323Z" transform="translate(-693.441 0)" fill="#fff"/>
    <path id="Path_1044" data-name="Path 1044" d="M2247.992,1464.889l-137.718,173.377h4.7l135.855-171.033Z" transform="translate(-342.996 -998.248)" fill="#fff"/>
    <path id="Path_1045" data-name="Path 1045" d="M1858.633,102.664l2.835,2.344L1944.863.019h-4.7Z" transform="translate(-172.887 0)" fill="#fff"/>
    <path id="Path_1046" data-name="Path 1046" d="M2201.634,272.118c-.054.908-.11,1.846-.222,2.755l-.058.469.168.44c.129.338,3.221,8.3,8.627,10.506,5.1,2.08,15.009-.549,23.753-2.868l1.049-.278c7.379-1.952,10.74-9.562,10.74-15.807a10.862,10.862,0,0,0-.6-3.809c-1.8-4.678-6.274-7.775-12.278-8.5-5.923-.71-16.385,2.065-23.6,4.944C2202.186,262.779,2201.893,267.741,2201.634,272.118Zm30.753-13.389c4.623.554,8.015,2.8,9.305,6.156a6.943,6.943,0,0,1,.348,2.449c0,4.054-2.132,10.65-8.006,12.2l-1.051.279c-7.794,2.067-17.495,4.64-21.479,3.014-3.062-1.249-5.519-5.85-6.415-7.986.09-.856.139-1.691.187-2.5.248-4.193.412-6.963,5.268-8.9C2217.395,260.708,2227.377,258.128,2232.388,258.729Z" transform="translate(-404.565 -172.311)" fill="#fff"/>
  </g>
</svg>
