<svg id="Layer_6" data-name="Layer 6" xmlns="http://www.w3.org/2000/svg" xmlns:xlink="http://www.w3.org/1999/xlink" width="48" height="48" viewBox="0 0 48 48">
  <defs>
    <clipPath id="clip-path">
      <rect id="SVGID" width="48" height="48" fill="none"/>
    </clipPath>
  </defs>
  <g id="Group_21" data-name="Group 21" clip-path="url(#clip-path)">
    <path id="Path_23" data-name="Path 23" d="M20.38,2H5.62A1.62,1.62,0,0,0,4,3.62V28a1.62,1.62,0,0,0,1.62,1.62H20.38A1.62,1.62,0,0,0,22,28V3.62A1.62,1.62,0,0,0,20.38,2Zm-10,1.16h5.18a.46.46,0,1,1,0,.92h-5.1a.46.46,0,1,1,0-.92Zm9.76,23.16a1.62,1.62,0,0,1-1.62,1.62H7.4a1.62,1.62,0,0,1-1.62-1.62V6.86A1.64,1.64,0,0,1,7.4,5.24H18.6a1.64,1.64,0,0,1,1.62,1.62Z" transform="translate(4 2)" fill="#efedf9"/>
    <path id="Path_24" data-name="Path 24" d="M32.5,32.5H8.5a2.98,2.98,0,0,1-3-3v-14a2.98,2.98,0,0,1,3-3h24a2.98,2.98,0,0,1,3,3v14a2.98,2.98,0,0,1-3,3Zm-24-18a.98.98,0,0,0-1,1v14a.98.98,0,0,0,1,1h24a.98.98,0,0,0,1-1v-14a.98.98,0,0,0-1-1Z" transform="translate(5.5 12.5)" fill="#3400c5"/>
    <path id="Path_25" data-name="Path 25" d="M28.05,17.5H8.65a1,1,0,0,1,0-2h19.4a1,1,0,0,1,0,2Z" transform="translate(7.65 15.5)" fill="#3400c5"/>
    <rect id="Rectangle_263" data-name="Rectangle 263" width="8" height="2" transform="translate(16 39)" fill="#00c4c4"/>
  </g>
</svg>
